<svg width="1442" height="565" viewBox="0 0 1442 565" fill="none" xmlns="http://www.w3.org/2000/svg">
<path fill-rule="evenodd" clip-rule="evenodd" d="M1438 0C869.434 102.187 234.801 44.3973 1 1.81937V104.792H0V304H126.651V305.172C126.651 307.934 124.412 310.172 121.651 310.172L109.01 310.172C104.281 310.172 102.195 316.13 105.891 319.08L164.32 365.712C166.144 367.168 168.733 367.168 170.558 365.712L209.221 334.855L220.32 343.712C222.144 345.168 224.733 345.168 226.558 343.712L247.915 326.667L289.32 359.712C291.144 361.168 293.733 361.168 295.558 359.712L346.474 319.076L367.32 335.712C369.144 337.168 371.733 337.168 373.558 335.712L389.939 322.639L406.32 335.712C408.144 337.168 410.733 337.168 412.558 335.712L452.292 304H484.651V345.172C484.651 347.934 482.412 350.172 479.651 350.172L467.01 350.172C462.281 350.172 460.195 356.13 463.891 359.08L522.32 405.712C524.144 407.168 526.733 407.168 528.558 405.712L586.986 359.08C590.683 356.13 588.597 350.172 583.867 350.172L571.03 350.172C568.268 350.172 566.03 347.934 566.03 345.172V304H603.334C603.634 304.767 604.145 305.485 604.891 306.08L663.32 352.712C665.144 354.168 667.733 354.168 669.558 352.712L697.33 330.547L711.32 341.712C713.144 343.168 715.733 343.168 717.558 341.712L733.018 329.374L787.32 372.712C789.144 374.168 791.733 374.168 793.558 372.712L842.36 333.763L852.32 341.712C854.144 343.168 856.733 343.168 858.558 341.712L905.81 304H1442V104.792H1439.56C1442.86 77.8219 1440.69 45.3761 1439.15 22.4013L1439.15 22.3955C1438.52 13.0093 1438 5.2043 1438 0ZM793.46 509C793.46 507.895 794.355 507 795.46 507H832.51C833.614 507 834.51 507.895 834.51 509V532.83C834.51 533.935 835.405 534.83 836.51 534.83L844.999 534.83C846.89 534.83 847.725 537.213 846.246 538.393L814.034 564.102L781.823 538.393C780.344 537.213 781.179 534.83 783.07 534.83L791.46 534.83C792.564 534.83 793.46 533.935 793.46 532.83V509ZM904.393 410C903.289 410 902.393 410.895 902.393 412V435.83C902.393 436.935 901.498 437.83 900.393 437.83H892.004C890.112 437.83 889.278 440.213 890.756 441.393L922.968 467.102L955.18 441.393C956.658 440.213 955.824 437.83 953.932 437.83H945.443C944.339 437.83 943.443 436.935 943.443 435.83V412C943.443 410.895 942.548 410 941.443 410H904.393ZM145.639 420C142.878 420 140.639 422.239 140.639 425V450.657C140.639 453.419 138.401 455.658 135.639 455.657H134.289C129.56 455.657 127.474 461.615 131.17 464.565L163.881 490.672C165.706 492.128 168.295 492.128 170.119 490.672L202.83 464.565C206.527 461.615 204.441 455.657 199.711 455.657H198.234C195.472 455.658 193.234 453.419 193.234 450.658V425C193.234 422.239 190.995 420 188.234 420H145.639Z" fill="#1C92FF"/>
</svg>
