<svg width="641" height="404" viewBox="0 0 641 404" fill="none" xmlns="http://www.w3.org/2000/svg">
<path d="M110.842 99.9615C122.941 99.9615 133.744 102.878 143.251 108.712C152.758 114.33 160.212 122.648 165.614 133.668C171.016 144.471 173.716 157.435 173.716 172.559C173.716 187.468 170.476 201.08 163.994 213.396C157.512 225.495 148.221 235.11 136.121 242.24C124.238 249.37 110.301 252.935 94.3126 252.935C66.2242 252.935 45.374 243.537 31.7619 224.739C18.1498 205.941 11.3438 180.122 11.3438 147.28C11.3438 122.648 15.1249 101.042 22.6872 82.4602C30.4655 63.8786 41.4848 49.5103 55.7451 39.3553C70.2214 28.9842 87.1825 23.7986 106.628 23.7986C125.426 23.7986 142.063 28.6601 156.539 38.383L137.742 68.8481C128.019 63.2304 118.08 60.4216 107.925 60.4216C95.609 60.4216 85.6701 65.6071 78.1078 75.9783C70.5455 86.3494 66.0082 101.042 64.4957 120.055C77.6757 106.659 93.1243 99.9615 110.842 99.9615ZM94.9608 216.312C104.036 216.312 110.842 212.531 115.379 204.969C120.132 197.191 122.509 186.603 122.509 173.207C122.509 159.595 120.348 149.872 116.027 144.039C111.706 138.205 105.224 135.288 96.5813 135.288C84.9138 135.288 74.2186 141.014 64.4957 152.465C64.9278 175.584 67.4126 192.005 71.9499 201.728C76.4873 211.451 84.1576 216.312 94.9608 216.312Z" fill="#5BB0FF"/>
<path d="M276.926 23.7986C303.718 23.7986 324.136 33.6295 338.181 53.2914C352.441 72.9534 359.571 101.258 359.571 138.205C359.571 174.936 352.441 203.24 338.181 223.118C324.136 242.996 303.718 252.935 276.926 252.935C250.134 252.935 229.608 242.996 215.348 223.118C201.304 203.24 194.281 174.936 194.281 138.205C194.281 101.258 201.304 72.9534 215.348 53.2914C229.608 33.6295 250.134 23.7986 276.926 23.7986ZM276.926 61.718C269.58 61.718 263.746 64.0947 259.425 68.8481C255.104 73.6016 251.863 81.4879 249.702 92.5072C247.757 103.527 246.785 118.759 246.785 138.205C246.785 157.651 247.757 172.991 249.702 184.227C251.863 195.246 255.104 203.132 259.425 207.886C263.746 212.639 269.58 215.016 276.926 215.016C284.272 215.016 290.106 212.747 294.427 208.21C298.749 203.457 301.882 195.57 303.826 184.551C305.987 173.315 307.067 157.867 307.067 138.205C307.067 118.543 305.987 103.202 303.826 92.1831C301.882 80.9478 298.749 73.0614 294.427 68.524C290.106 63.9867 284.272 61.718 276.926 61.718Z" fill="#5BB0FF"/>
<path d="M570.546 14.0757L601.983 34.1697L451.926 260.39L420.489 240.296L570.546 14.0757ZM438.638 23.7986C449.441 23.7986 459.164 26.1753 467.807 30.9287C476.666 35.6822 483.58 42.4882 488.549 51.3469C493.735 60.2055 496.327 70.4686 496.327 82.1361C496.327 93.8036 493.735 104.067 488.549 112.925C483.58 121.784 476.666 128.59 467.807 133.343C459.164 138.097 449.441 140.474 438.638 140.474C427.835 140.474 418.004 138.097 409.145 133.343C400.503 128.374 393.589 121.568 388.403 112.925C383.434 104.067 380.949 93.8036 380.949 82.1361C380.949 70.4686 383.434 60.3136 388.403 51.671C393.589 42.8123 400.503 36.0063 409.145 31.2528C418.004 26.2833 427.835 23.7986 438.638 23.7986ZM438.638 54.5878C424.594 54.5878 417.572 63.7706 417.572 82.1361C417.572 90.1305 419.084 96.7205 422.109 101.906C425.35 107.092 430.86 109.684 438.638 109.684C452.466 109.684 459.38 100.502 459.38 82.1361C459.38 63.7706 452.466 54.5878 438.638 54.5878ZM582.861 136.584C593.665 136.584 603.388 138.961 612.03 143.715C620.889 148.468 627.803 155.274 632.772 164.133C637.958 172.775 640.551 182.93 640.551 194.598C640.551 206.265 637.958 216.528 632.772 225.387C627.803 234.246 620.889 241.052 612.03 245.805C603.388 250.559 593.665 252.935 582.861 252.935C572.058 252.935 562.227 250.559 553.369 245.805C544.51 241.052 537.488 234.246 532.302 225.387C527.333 216.528 524.848 206.265 524.848 194.598C524.848 182.93 527.333 172.775 532.302 164.133C537.488 155.274 544.51 148.468 553.369 143.715C562.227 138.961 572.058 136.584 582.861 136.584ZM582.861 167.374C568.817 167.374 561.795 176.448 561.795 194.598C561.795 202.592 563.308 209.29 566.332 214.692C569.573 219.877 575.083 222.47 582.861 222.47C596.69 222.47 603.604 213.179 603.604 194.598C603.604 176.448 596.69 167.374 582.861 167.374Z" fill="#5BB0FF"/>
<path fill-rule="evenodd" clip-rule="evenodd" d="M154.177 200.809L154.174 200.814C147.621 213.047 138.224 222.77 126 229.974C113.973 237.189 99.8899 240.782 83.7791 240.782C55.4925 240.782 34.3695 231.304 20.5721 212.25C6.82608 193.268 0 167.26 0 134.316C0 109.603 3.79356 87.8888 11.4032 69.1908L11.4062 69.1834C19.2338 50.4843 30.3402 35.9872 44.7406 25.732C59.3671 15.2536 76.4965 10.0244 96.0948 10.0244C115.04 10.0244 131.837 14.9267 146.458 24.7464L147.105 25.181L127.484 56.9795L126.803 56.5857C117.19 51.0315 107.389 48.2679 97.3912 48.2679C85.347 48.2679 75.6463 53.3193 68.229 63.4917C61.0775 73.2994 56.6316 87.0989 54.9594 104.965C67.9353 92.4614 83.0618 86.1873 100.308 86.1873C112.542 86.1873 123.492 89.1377 133.136 95.0539C142.79 100.76 150.345 109.203 155.807 120.345C161.276 131.284 163.993 144.377 163.993 159.595C163.993 174.626 160.725 188.369 154.177 200.809ZM132.718 95.7481C123.211 89.9144 112.408 86.9975 100.308 86.9975C82.9864 86.9975 67.8332 93.3997 54.8484 106.204C54.5519 106.497 54.2565 106.792 53.9622 107.092C53.9956 106.672 54.0305 106.254 54.0669 105.838C55.6766 87.4308 60.1791 73.1563 67.5743 63.0143C75.1366 52.6432 85.0755 47.4576 97.3912 47.4576C107.546 47.4576 117.485 50.2665 127.208 55.8842L146.006 25.419C131.529 15.6961 114.892 10.8346 96.0948 10.8346C76.649 10.8346 59.6879 16.0202 45.2116 26.3913C30.9513 36.5464 19.932 50.9147 12.1536 69.4963C4.59138 88.0778 0.810243 109.684 0.810243 134.316C0.810243 167.158 7.61629 192.977 21.2284 211.775C34.8405 230.573 55.6907 239.971 83.7791 239.971C99.7679 239.971 113.704 236.406 125.588 229.276C137.687 222.146 146.978 212.531 153.46 200.432C159.942 188.116 163.183 174.504 163.183 159.595C163.183 144.471 160.482 131.507 155.081 120.704C149.679 109.684 142.225 101.366 132.718 95.7481ZM104.151 191.588L104.154 191.582C108.801 183.978 111.165 173.556 111.165 160.243C111.165 146.674 109.003 137.174 104.843 131.557C100.704 125.97 94.4889 123.134 86.0478 123.134C74.761 123.134 64.3405 128.623 54.7782 139.793C55.2263 162.737 57.7105 178.907 62.1507 188.421C64.366 193.168 67.3237 196.684 71.0059 199.018C74.6885 201.352 79.1498 202.538 84.4273 202.538C93.2276 202.538 99.7649 198.898 104.151 191.588ZM53.9622 139.501C63.6851 128.05 74.3803 122.324 86.0478 122.324C94.6904 122.324 101.172 125.241 105.494 131.075C109.815 136.908 111.976 146.631 111.976 160.243C111.976 173.639 109.599 184.227 104.845 192.005C100.308 199.567 93.5021 203.348 84.4273 203.348C73.6241 203.348 65.9538 198.487 61.4164 188.764C56.8791 179.041 54.3943 162.62 53.9622 139.501ZM204.156 210.627L204.153 210.622C189.974 190.554 182.938 162.059 182.938 125.241C182.938 88.2088 189.973 59.7112 204.155 39.8565L204.158 39.8518C218.588 19.9558 239.372 10.0244 266.393 10.0244C293.412 10.0244 314.089 19.9549 328.304 39.8529C342.704 59.7083 349.848 88.2075 349.848 125.241C349.848 162.06 342.703 190.556 328.306 210.625C314.093 230.74 293.416 240.782 266.393 240.782C239.369 240.782 218.585 230.739 204.156 210.627ZM327.647 210.154C341.907 190.277 349.038 161.972 349.038 125.241C349.038 88.2939 341.907 59.9894 327.647 40.3275C313.603 20.6656 293.185 10.8346 266.393 10.8346C239.601 10.8346 219.075 20.6656 204.814 40.3275C190.77 59.9894 183.748 88.2939 183.748 125.241C183.748 161.972 190.77 190.277 204.814 210.154C219.075 230.032 239.601 239.971 266.393 239.971C293.185 239.971 313.603 230.032 327.647 210.154ZM292.496 171.44L292.497 171.434C294.644 160.272 295.724 144.882 295.724 125.241C295.724 105.599 294.643 90.3186 292.498 79.3751L292.496 79.3662L292.494 79.3573C290.558 68.168 287.459 60.4786 283.307 56.1188C279.165 51.7699 273.559 49.5643 266.393 49.5643C259.239 49.5643 253.636 51.8697 249.491 56.4292C245.319 61.0179 242.116 68.7271 239.965 79.6924C238.033 90.6427 237.062 105.818 237.062 125.241C237.062 144.663 238.033 159.947 239.965 171.115C242.116 182.08 245.32 189.788 249.491 194.377C253.636 198.936 259.239 201.242 266.393 201.242C273.555 201.242 279.16 199.038 283.301 194.694C287.465 190.109 290.561 182.407 292.495 171.446L292.496 171.44ZM283.894 195.246C279.573 199.783 273.739 202.052 266.393 202.052C259.047 202.052 253.213 199.675 248.891 194.922C244.57 190.168 241.329 182.282 239.169 171.263C237.224 160.027 236.252 144.687 236.252 125.241C236.252 105.795 237.224 90.5626 239.169 79.5433C241.329 68.5239 244.57 60.6376 248.891 55.8842C253.213 51.1307 259.047 48.754 266.393 48.754C273.739 48.754 279.573 51.0227 283.894 55.5601C288.215 60.0974 291.348 67.9838 293.293 79.2192C295.453 90.2385 296.534 105.579 296.534 125.241C296.534 144.903 295.453 160.352 293.293 171.587C291.348 182.606 288.215 190.493 283.894 195.246ZM559.777 0L592.58 20.9669L441.627 248.537L408.824 227.57L559.777 0ZM398.218 121.088L398.208 121.082C389.444 116.043 382.431 109.138 377.175 100.378L377.169 100.368L377.163 100.358C372.116 91.3611 369.605 80.9576 369.605 69.1721C369.605 57.3872 372.116 47.0881 377.167 38.3031L377.17 38.2977C382.426 29.3194 389.443 22.4078 398.218 17.581C407.204 12.54 417.172 10.0244 428.105 10.0244C439.029 10.0244 448.888 12.4288 457.66 17.2527C466.652 22.0788 473.676 28.9931 478.719 37.9809C483.984 46.9783 486.604 57.384 486.604 69.1721C486.604 80.9603 483.984 91.3661 478.719 100.363C473.676 109.351 466.652 116.266 457.66 121.092C448.887 125.916 439.029 128.32 428.105 128.32C417.178 128.32 407.214 125.915 398.229 121.093L398.218 121.088ZM457.273 120.38C466.132 115.626 473.046 108.82 478.016 99.9614C483.201 91.1027 485.794 80.8396 485.794 69.1721C485.794 57.5046 483.201 47.2416 478.016 38.3829C473.046 29.5243 466.132 22.7182 457.273 17.9648C448.631 13.2113 438.908 10.8346 428.105 10.8346C417.301 10.8346 407.47 13.3194 398.612 18.2889C389.969 23.0423 383.055 29.8483 377.87 38.707C372.9 47.3496 370.415 57.5046 370.415 69.1721C370.415 80.8396 372.9 91.1027 377.87 99.9614C383.055 108.604 389.969 115.41 398.612 120.38C407.47 125.133 417.301 127.51 428.105 127.51C438.908 127.51 448.631 125.133 457.273 120.38ZM521.066 212.826L521.062 212.82C516.015 203.823 513.504 193.419 513.504 181.634C513.504 169.849 516.015 159.55 521.066 150.765L521.069 150.759C526.329 141.775 533.459 134.862 542.452 130.037C551.437 125.215 561.401 122.81 572.328 122.81C583.253 122.81 593.111 125.215 601.883 130.039C610.874 134.864 617.897 141.777 622.94 150.762C628.208 159.547 630.827 169.848 630.827 181.634C630.827 193.423 628.207 203.829 622.941 212.827C617.898 221.814 610.875 228.728 601.883 233.553C593.111 238.377 583.253 240.782 572.328 240.782C561.401 240.782 551.437 238.377 542.452 233.555C533.459 228.73 526.329 221.817 521.069 212.832L521.066 212.826ZM601.497 232.841C610.355 228.088 617.269 221.282 622.239 212.423C627.424 203.564 630.017 193.301 630.017 181.634C630.017 169.966 627.424 159.811 622.239 151.169C617.269 142.31 610.355 135.504 601.497 130.751C592.854 125.997 583.131 123.62 572.328 123.62C561.525 123.62 551.694 125.997 542.835 130.751C533.976 135.504 526.954 142.31 521.769 151.169C516.799 159.811 514.315 169.966 514.315 181.634C514.315 193.301 516.799 203.564 521.769 212.423C526.954 221.282 533.976 228.088 542.835 232.841C551.694 237.595 561.525 239.971 572.328 239.971C583.131 239.971 592.854 237.595 601.497 232.841ZM560.012 1.11266L409.955 227.332L441.393 247.426L591.45 21.2057L560.012 1.11172L560.012 1.11266ZM412.948 49.0031C409.593 53.3915 407.849 60.0698 407.849 69.1721C407.849 77.0638 409.341 83.498 412.27 88.5236C415.323 93.3998 420.525 95.9102 428.105 95.9102C434.822 95.9102 439.742 93.6918 443.014 89.346C446.319 84.9569 448.037 78.2765 448.037 69.1721C448.037 60.0678 446.319 53.3874 443.014 48.9983C439.742 44.6525 434.822 42.4341 428.105 42.4341C421.274 42.4341 416.273 44.6558 412.948 49.0031ZM411.576 88.9421C408.551 83.7565 407.038 77.1665 407.038 69.1721C407.038 50.8066 414.06 41.6239 428.105 41.6239C441.933 41.6239 448.847 50.8066 448.847 69.1721C448.847 87.5377 441.933 96.7204 428.105 96.7204C420.326 96.7204 414.817 94.1276 411.576 88.9421ZM557.169 161.712C553.815 166.046 552.072 172.641 552.072 181.634C552.072 189.521 553.562 196.068 556.497 201.315C559.55 206.188 564.751 208.696 572.328 208.696C579.042 208.696 583.961 206.453 587.235 202.054C590.542 197.611 592.26 190.848 592.26 181.634C592.26 172.639 590.543 166.041 587.24 161.707C583.969 157.414 579.049 155.22 572.328 155.22C565.494 155.22 560.492 157.417 557.169 161.712ZM555.799 201.728C552.774 196.326 551.262 189.628 551.262 181.634C551.262 163.484 558.284 154.41 572.328 154.41C586.156 154.41 593.07 163.484 593.07 181.634C593.07 200.215 586.156 209.506 572.328 209.506C564.55 209.506 559.04 206.913 555.799 201.728Z" fill="black" fill-opacity="0.4"/>
<ellipse cx="318.551" cy="395.381" rx="111" ry="8.5" fill="#1C92FF" fill-opacity="0.5"/>
</svg>
