<svg width="624" height="382" viewBox="0 0 624 382" fill="none" xmlns="http://www.w3.org/2000/svg">
<ellipse cx="318" cy="373.5" rx="111" ry="8.5" fill="#1F82DE"/>
<path d="M150.511 27.6474V63.2671L67.9325 258.011L20.3169 242.032L95.9025 67.2618H5V27.6474H150.511Z" fill="#1C92FF"/>
<path d="M250.414 22.9868C277.94 22.9868 298.917 33.0846 313.346 53.2803C327.997 73.4759 335.323 102.549 335.323 140.499C335.323 178.227 327.997 207.3 313.346 227.717C298.917 248.135 277.94 258.343 250.414 258.343C222.888 258.343 201.799 248.135 187.148 227.717C172.719 207.3 165.505 178.227 165.505 140.499C165.505 102.549 172.719 73.4759 187.148 53.2803C201.799 33.0846 222.888 22.9868 250.414 22.9868ZM250.414 61.9355C242.866 61.9355 236.873 64.3768 232.433 69.2592C227.993 74.1417 224.664 82.2421 222.444 93.5605C220.446 104.879 219.447 120.525 219.447 140.499C219.447 160.472 220.446 176.229 222.444 187.77C224.664 199.088 227.993 207.189 232.433 212.071C236.873 216.954 242.866 219.395 250.414 219.395C257.961 219.395 263.955 217.064 268.395 212.404C272.834 207.522 276.053 199.421 278.051 188.103C280.271 176.562 281.381 160.694 281.381 140.499C281.381 120.303 280.271 104.546 278.051 93.2276C276.053 81.6873 272.834 73.5868 268.395 68.9263C263.955 64.2658 257.961 61.9355 250.414 61.9355Z" fill="#1C92FF"/>
<path d="M552.077 13L584.376 33.6395L430.208 266L397.909 245.361L552.077 13ZM416.556 22.9868C427.655 22.9868 437.644 25.4281 446.524 30.3105C455.625 35.193 462.729 42.1838 467.834 51.2829C473.162 60.382 475.826 70.9237 475.826 82.9079C475.826 94.8921 473.162 105.434 467.834 114.533C462.729 123.632 455.625 130.623 446.524 135.505C437.644 140.388 427.655 142.829 416.556 142.829C405.457 142.829 395.356 140.388 386.255 135.505C377.376 130.401 370.272 123.41 364.945 114.533C359.839 105.434 357.286 94.8921 357.286 82.9079C357.286 70.9237 359.839 60.493 364.945 51.6158C370.272 42.5167 377.376 35.5259 386.255 30.6434C395.356 25.539 405.457 22.9868 416.556 22.9868ZM416.556 54.6118C402.127 54.6118 394.912 64.0439 394.912 82.9079C394.912 91.1193 396.466 97.8882 399.574 103.214C402.904 108.541 408.564 111.204 416.556 111.204C430.763 111.204 437.866 101.772 437.866 82.9079C437.866 64.0439 430.763 54.6118 416.556 54.6118ZM564.73 138.834C575.829 138.834 585.819 141.275 594.698 146.158C603.799 151.04 610.903 158.031 616.009 167.13C621.336 176.007 624 186.438 624 198.422C624 210.407 621.336 220.948 616.009 230.047C610.903 239.146 603.799 246.137 594.698 251.02C585.819 255.902 575.829 258.343 564.73 258.343C553.631 258.343 543.531 255.902 534.429 251.02C525.328 246.137 518.114 239.146 512.786 230.047C507.68 220.948 505.128 210.407 505.128 198.422C505.128 186.438 507.68 176.007 512.786 167.13C518.114 158.031 525.328 151.04 534.429 146.158C543.531 141.275 553.631 138.834 564.73 138.834ZM564.73 170.459C550.301 170.459 543.087 179.78 543.087 198.422C543.087 206.634 544.641 213.514 547.748 219.062C551.078 224.388 556.739 227.051 564.73 227.051C578.937 227.051 586.041 217.508 586.041 198.422C586.041 179.78 578.937 170.459 564.73 170.459Z" fill="#1C92FF"/>
<path fill-rule="evenodd" clip-rule="evenodd" d="M147.255 14.999V51.7228L64.2653 247.88L15.0339 231.321L90.5169 56.3937H0V14.999H147.255ZM91.7845 55.5592L16.1581 230.819L63.7994 246.843L146.422 51.5532V15.8336H0.83289V55.5592H91.7845ZM182.403 216.951L182.399 216.946C167.824 196.275 160.592 166.925 160.592 129.001C160.592 90.8574 167.824 61.5041 182.402 41.0533L182.405 41.0484C197.239 20.555 218.603 10.3254 246.379 10.3254C274.153 10.3254 295.409 20.5541 310.021 41.0495C324.823 61.5011 332.167 90.8561 332.167 129.001C332.167 166.926 324.823 196.278 310.023 216.95C295.413 237.668 274.157 248.011 246.379 248.011C218.6 248.011 197.235 237.668 182.403 216.951ZM309.346 216.465C324.005 195.99 331.334 166.835 331.334 129.001C331.334 90.945 324.005 61.7906 309.346 41.5384C294.909 21.2861 273.92 11.16 246.379 11.16C218.838 11.16 197.738 21.2861 183.08 41.5384C168.643 61.7906 161.424 90.945 161.424 129.001C161.424 166.835 168.643 195.99 183.08 216.465C197.738 236.939 218.838 247.177 246.379 247.177C273.92 247.177 294.909 236.939 309.346 216.465ZM273.212 176.588L273.213 176.581C275.42 165.085 276.53 149.233 276.53 129.001C276.53 108.769 275.42 93.0306 273.214 81.7584L273.212 81.7493L273.21 81.7401C271.22 70.2148 268.035 62.2945 263.766 57.8039C259.509 53.3243 253.746 51.0525 246.379 51.0525C239.025 51.0525 233.266 53.4272 229.005 58.1236C224.717 62.8501 221.424 70.7907 219.213 82.0852C217.227 93.3644 216.229 108.996 216.229 129.001C216.229 149.006 217.227 164.75 219.213 176.253C221.424 187.547 224.717 195.487 229.005 200.213C233.266 204.91 239.025 207.284 246.379 207.284C253.742 207.284 259.503 205.015 263.76 200.54C268.04 195.817 271.223 187.884 273.211 176.594L273.212 176.588ZM264.37 201.108C259.928 205.782 253.931 208.119 246.379 208.119C238.828 208.119 232.831 205.671 228.389 200.775C223.947 195.878 220.615 187.755 218.394 176.405C216.395 164.832 215.396 149.031 215.396 129.001C215.396 108.972 216.395 93.2818 218.394 81.9316C220.615 70.5815 223.947 62.4583 228.389 57.5622C232.831 52.666 238.828 50.2179 246.379 50.2179C253.931 50.2179 259.928 52.5547 264.37 57.2283C268.812 61.9019 272.032 70.0251 274.031 81.5978C276.252 92.948 277.363 108.749 277.363 129.001C277.363 149.254 276.252 165.166 274.031 176.739C272.032 188.089 268.812 196.212 264.37 201.108ZM547.964 0L581.684 21.5964L426.512 256L392.792 234.404L547.964 0ZM381.889 124.724L381.879 124.718C372.87 119.527 365.66 112.415 360.258 103.392L360.251 103.382L360.245 103.371C355.057 94.1043 352.476 83.3884 352.476 71.2491C352.476 59.1104 355.057 48.502 360.25 39.4532L360.253 39.4476C365.655 30.1998 372.869 23.0806 381.889 18.1089C391.127 12.9165 401.373 10.3254 412.611 10.3254C423.841 10.3254 433.975 12.802 442.992 17.7708C452.236 22.7417 459.456 29.8637 464.64 39.1213C470.052 48.3889 472.746 59.107 472.746 71.2491C472.746 83.3912 470.052 94.1094 464.64 103.377C459.456 112.635 452.236 119.757 442.992 124.728C433.975 129.696 423.841 132.173 412.611 132.173C401.379 132.173 391.136 129.696 381.9 124.729L381.889 124.724ZM442.595 123.994C451.701 119.098 458.809 112.088 463.917 102.963C469.247 93.8382 471.913 83.2669 471.913 71.2491C471.913 59.2313 469.247 48.6601 463.917 39.5354C458.809 30.4108 451.701 23.4004 442.595 18.5042C433.711 13.608 423.716 11.16 412.611 11.16C401.506 11.16 391.4 13.7193 382.294 18.838C373.41 23.7342 366.302 30.7446 360.972 39.8692C355.863 48.7713 353.309 59.2313 353.309 71.2491C353.309 83.2669 355.863 93.8382 360.972 102.963C366.302 111.865 373.41 118.875 382.294 123.994C391.4 128.89 401.506 131.338 412.611 131.338C423.716 131.338 433.711 128.89 442.595 123.994ZM508.17 219.216L508.167 219.21C502.979 209.943 500.398 199.227 500.398 187.088C500.398 174.949 502.978 164.341 508.171 155.292L508.174 155.286C513.581 146.032 520.91 138.912 530.154 133.941C539.391 128.975 549.633 126.498 560.865 126.498C572.096 126.498 582.229 128.974 591.247 133.943C600.489 138.913 607.708 146.034 612.892 155.289C618.307 164.338 621 174.947 621 187.088C621 199.231 618.306 209.95 612.893 219.218C607.709 228.474 600.49 235.596 591.247 240.566C582.229 245.535 572.096 248.011 560.865 248.011C549.633 248.011 539.391 245.534 530.154 240.568C520.91 235.598 513.581 228.477 508.174 219.223L508.17 219.216ZM590.849 239.833C599.956 234.936 607.063 227.926 612.171 218.801C617.502 209.677 620.167 199.106 620.167 187.088C620.167 175.07 617.502 164.61 612.171 155.708C607.063 146.583 599.956 139.573 590.849 134.677C581.965 129.78 571.971 127.332 560.865 127.332C549.76 127.332 539.654 129.78 530.548 134.677C521.442 139.573 514.224 146.583 508.893 155.708C503.785 164.61 501.23 175.07 501.23 187.088C501.23 199.106 503.785 209.677 508.893 218.801C514.224 227.926 521.442 234.936 530.548 239.833C539.654 244.729 549.76 247.177 560.865 247.177C571.971 247.177 581.965 244.729 590.849 239.833ZM548.205 1.14607L393.954 234.157L393.955 234.158L426.27 254.855L580.522 21.8425L580.521 21.842L548.205 1.1451L548.205 1.14607ZM397.031 50.4745C393.582 54.9947 391.789 61.8735 391.789 71.2491C391.789 79.3777 393.323 86.0051 396.333 91.1816C399.472 96.2043 404.819 98.79 412.611 98.79C419.516 98.79 424.574 96.505 427.937 92.0287C431.334 87.5078 433.1 80.6268 433.1 71.2491C433.1 61.8714 431.334 54.9904 427.937 50.4695C424.574 45.9932 419.516 43.7083 412.611 43.7083C405.59 43.7083 400.449 45.9967 397.031 50.4745ZM395.62 91.6127C392.511 86.2714 390.956 79.4836 390.956 71.2491C390.956 52.3322 398.174 42.8737 412.611 42.8737C426.826 42.8737 433.933 52.3322 433.933 71.2491C433.933 90.1661 426.826 99.6246 412.611 99.6246C404.615 99.6246 398.952 96.9539 395.62 91.6127ZM545.283 166.567C541.835 171.031 540.043 177.825 540.043 187.088C540.043 195.211 541.575 201.955 544.592 207.36C547.73 212.379 553.077 214.962 560.865 214.962C567.767 214.962 572.824 212.652 576.189 208.121C579.588 203.544 581.354 196.578 581.354 187.088C581.354 177.823 579.589 171.027 576.194 166.562C572.832 162.14 567.774 159.881 560.865 159.881C553.841 159.881 548.699 162.144 545.283 166.567ZM543.874 207.785C540.765 202.221 539.21 195.322 539.21 187.088C539.21 168.393 546.429 159.046 560.865 159.046C575.08 159.046 582.187 168.393 582.187 187.088C582.187 206.227 575.08 215.797 560.865 215.797C552.87 215.797 547.206 213.126 543.874 207.785Z" fill="white"/>
</svg>
