<svg width="1505" height="663" viewBox="0 0 1505 663" fill="none" xmlns="http://www.w3.org/2000/svg">
<path d="M745.5 399.5C745.5 428.833 739.833 455 728.5 478C717.5 500.667 702.167 518.5 682.5 531.5C663.167 544.5 641.167 551 616.5 551C591.833 551 569.667 544.5 550 531.5C530.667 518.5 515.333 500.667 504 478C493 455 487.5 428.833 487.5 399.5C487.5 370.167 493 344.167 504 321.5C515.333 298.5 530.667 280.5 550 267.5C569.667 254.167 591.833 247.5 616.5 247.5C641.167 247.5 663.167 254.167 682.5 267.5C702.167 280.5 717.5 298.5 728.5 321.5C739.833 344.167 745.5 370.167 745.5 399.5ZM678 399.5C678 372.833 672.167 351.167 660.5 334.5C649.167 317.5 634.5 309 616.5 309C597.833 309 582.833 317.5 571.5 334.5C560.167 351.167 554.5 372.833 554.5 399.5C554.5 426.167 560.167 447.833 571.5 464.5C582.833 481.167 597.833 489.5 616.5 489.5C634.5 489.5 649.167 481.167 660.5 464.5C672.167 447.833 678 426.167 678 399.5Z" fill="#D0D0D0"/>
<path d="M708.5 468L708.051 467.779L708.05 467.782L708.5 468ZM662.5 521.5L662.224 521.083L662.221 521.085L662.5 521.5ZM530 521.5L529.721 521.915L529.724 521.917L530 521.5ZM484 468L483.549 468.216L483.553 468.224L484 468ZM484 311.5L483.551 311.279L483.55 311.282L484 311.5ZM530 257.5L530.279 257.915L530.281 257.914L530 257.5ZM662.5 257.5L662.216 257.912L662.224 257.917L662.5 257.5ZM708.5 311.5L708.049 311.716L708.053 311.724L708.5 311.5ZM640.5 324.5L640.084 324.777L640.09 324.787L640.5 324.5ZM551.5 324.5L551.913 324.781L551.916 324.777L551.5 324.5ZM551.5 454.5L551.087 454.781L551.087 454.781L551.5 454.5ZM640.5 454.5L640.09 454.213L640.087 454.219L640.5 454.5ZM725 389.5C725 418.768 719.346 444.857 708.052 467.779L708.949 468.221C720.32 445.143 726 418.899 726 389.5H725ZM708.05 467.782C697.087 490.373 681.811 508.136 662.224 521.083L662.776 521.917C682.522 508.864 697.913 490.96 708.95 468.218L708.05 467.782ZM662.221 521.085C642.975 534.026 621.073 540.5 596.5 540.5V541.5C621.26 541.5 643.358 534.974 662.779 521.915L662.221 521.085ZM596.5 540.5C571.927 540.5 549.857 534.026 530.276 521.083L529.724 521.917C549.477 534.974 571.74 541.5 596.5 541.5V540.5ZM530.279 521.085C511.024 508.137 495.745 490.373 484.447 467.776L483.553 468.224C494.921 490.961 510.31 508.863 529.721 521.915L530.279 521.085ZM484.451 467.784C473.488 444.861 468 418.77 468 389.5H467C467 418.897 472.512 445.139 483.549 468.216L484.451 467.784ZM468 389.5C468 360.23 473.488 334.307 484.45 311.718L483.55 311.282C472.512 334.027 467 360.103 467 389.5H468ZM484.449 311.721C495.747 288.791 511.025 270.861 530.279 257.915L529.721 257.085C510.308 270.139 494.919 288.209 483.551 311.279L484.449 311.721ZM530.281 257.914C549.861 244.639 571.929 238 596.5 238V237C571.737 237 549.472 243.694 529.719 257.086L530.281 257.914ZM596.5 238C621.071 238 642.971 244.639 662.216 257.912L662.784 257.088C643.363 243.694 621.263 237 596.5 237V238ZM662.224 257.917C681.809 270.863 697.085 288.791 708.049 311.716L708.951 311.284C697.915 288.209 682.524 270.137 662.776 257.083L662.224 257.917ZM708.053 311.724C719.346 334.311 725 360.232 725 389.5H726C726 360.101 720.32 334.023 708.947 311.276L708.053 311.724ZM658.5 389.5C658.5 362.762 652.651 340.987 640.91 324.213L640.09 324.787C651.682 341.347 657.5 362.904 657.5 389.5H658.5ZM640.916 324.223C629.505 307.106 614.692 298.5 596.5 298.5V299.5C614.308 299.5 628.829 307.894 640.084 324.777L640.916 324.223ZM596.5 298.5C577.648 298.5 562.5 307.099 551.084 324.223L551.916 324.777C563.167 307.901 578.018 299.5 596.5 299.5V298.5ZM551.087 324.219C539.681 340.991 534 362.765 534 389.5H535C535 362.902 540.652 341.342 551.913 324.781L551.087 324.219ZM534 389.5C534 416.235 539.681 438.009 551.087 454.781L551.913 454.219C540.652 437.658 535 416.098 535 389.5H534ZM551.087 454.781C562.504 471.572 577.653 480 596.5 480V479C578.014 479 563.162 470.762 551.913 454.219L551.087 454.781ZM596.5 480C614.687 480 629.5 471.566 640.913 454.781L640.087 454.219C628.833 470.768 614.313 479 596.5 479V480ZM640.91 454.787C652.651 438.013 658.5 416.238 658.5 389.5H657.5C657.5 416.096 651.682 437.653 640.09 454.213L640.91 454.787Z" fill="black" fill-opacity="0.4"/>
<ellipse cx="766.5" cy="649.5" rx="88.5" ry="6.5" fill="#C4C4C4" fill-opacity="0.5"/>
<path fill-rule="evenodd" clip-rule="evenodd" d="M1397.15 6.5C1397.15 2.91015 1400.06 0 1403.65 0H1475.03C1478.62 0 1481.53 2.91014 1481.53 6.5V51.6722C1481.53 53.6052 1483.1 55.1722 1485.03 55.1722L1497.87 55.1722C1504.02 55.1722 1506.73 62.9174 1501.92 66.7525L1443.49 113.385C1441.12 115.278 1437.76 115.278 1435.38 113.385L1376.96 66.7525C1372.15 62.9174 1374.86 55.1722 1381.01 55.1722L1393.65 55.1722C1395.58 55.1722 1397.15 53.6052 1397.15 51.6722V6.5ZM1403.65 3C1401.72 3 1400.15 4.56701 1400.15 6.5V51.6722C1400.15 55.2621 1397.24 58.1722 1393.65 58.1722L1381.01 58.1722C1377.7 58.1722 1376.24 62.3427 1378.83 64.4078L1437.26 111.04C1438.53 112.059 1440.34 112.059 1441.62 111.04L1500.05 64.4078C1502.64 62.3427 1501.18 58.1722 1497.87 58.1722L1485.03 58.1722C1481.44 58.1722 1478.53 55.2621 1478.53 51.6722V6.5C1478.53 4.567 1476.96 3 1475.03 3H1403.65Z" fill="#5BB0FF"/>
<path fill-rule="evenodd" clip-rule="evenodd" d="M22.6506 45C22.6506 42.2386 24.8892 40 27.6506 40H99.0296C101.791 40 104.03 42.2386 104.03 45V90.1722C104.03 92.9336 106.268 95.1722 109.03 95.1722L121.867 95.1722C126.597 95.1722 128.683 101.13 124.986 104.08L66.5575 150.712C64.7331 152.168 62.144 152.168 60.3196 150.712L1.89092 104.08C-1.80545 101.13 0.280593 95.1722 5.00988 95.1722L17.6506 95.1722C20.412 95.1722 22.6506 92.9336 22.6506 90.1722V45Z" fill="#1C92FF"/>
<path d="M969.483 284.895L1002.95 306.219L843.219 546.292L809.755 524.967L969.483 284.895ZM829.074 295.213C840.574 295.213 850.923 297.735 860.123 302.78C869.552 307.824 876.912 315.047 882.202 324.448C887.722 333.849 890.481 344.741 890.481 357.123C890.481 369.505 887.722 380.396 882.202 389.798C876.912 399.199 869.552 406.422 860.123 411.466C850.923 416.511 840.574 419.033 829.074 419.033C817.575 419.033 807.11 416.511 797.681 411.466C788.481 406.192 781.121 398.969 775.602 389.798C770.312 380.396 767.667 369.505 767.667 357.123C767.667 344.741 770.312 333.964 775.602 324.792C781.121 315.391 788.481 308.168 797.681 303.124C807.11 297.85 817.575 295.213 829.074 295.213ZM829.074 327.888C814.125 327.888 806.65 337.633 806.65 357.123C806.65 365.607 808.26 372.6 811.48 378.104C814.93 383.607 820.795 386.358 829.074 386.358C843.794 386.358 851.153 376.613 851.153 357.123C851.153 337.633 843.794 327.888 829.074 327.888ZM982.592 414.905C994.092 414.905 1004.44 417.428 1013.64 422.472C1023.07 427.517 1030.43 434.739 1035.72 444.141C1041.24 453.312 1044 464.089 1044 476.471C1044 488.853 1041.24 499.745 1035.72 509.146C1030.43 518.547 1023.07 525.77 1013.64 530.814C1004.44 535.859 994.092 538.381 982.592 538.381C971.093 538.381 960.628 535.859 951.199 530.814C941.769 525.77 934.294 518.547 928.775 509.146C923.485 499.745 920.84 488.853 920.84 476.471C920.84 464.089 923.485 453.312 928.775 444.141C934.294 434.739 941.769 427.517 951.199 422.472C960.628 417.428 971.093 414.905 982.592 414.905ZM982.592 447.58C967.643 447.58 960.168 457.21 960.168 476.471C960.168 484.955 961.778 492.063 964.998 497.796C968.448 503.299 974.313 506.05 982.592 506.05C997.312 506.05 1004.67 496.191 1004.67 476.471C1004.67 457.21 997.312 447.58 982.592 447.58Z" fill="#D0D0D0"/>
<path fill-rule="evenodd" clip-rule="evenodd" d="M962.457 271L997.11 293.126L836.499 535.002L801.847 512.876L962.457 271ZM790.391 399.465L790.382 399.46C781.073 394.113 773.623 386.786 768.039 377.49L768.034 377.481L768.029 377.472C762.669 367.928 760 356.887 760 344.371C760 331.856 762.669 320.927 768.032 311.609L768.035 311.604C773.619 302.076 781.071 294.744 790.39 289.623C799.936 284.274 810.525 281.603 822.144 281.603C833.755 281.603 844.228 284.156 853.545 289.274C863.095 294.394 870.554 301.728 875.91 311.265C881.502 320.81 884.287 331.853 884.287 344.371C884.287 356.89 881.502 367.933 875.91 377.478C870.554 387.014 863.095 394.349 853.545 399.469C844.228 404.587 833.755 407.14 822.144 407.14C810.53 407.14 799.945 404.586 790.4 399.47L790.391 399.465ZM853.216 398.862C862.652 393.804 870.017 386.562 875.311 377.135C880.835 367.708 883.597 356.787 883.597 344.371C883.597 331.956 880.835 321.034 875.311 311.608C870.017 302.181 862.652 294.938 853.216 289.88C844.009 284.822 833.652 282.293 822.144 282.293C810.636 282.293 800.163 284.937 790.727 290.225C781.52 295.283 774.155 302.526 768.631 311.953C763.337 321.149 760.69 331.956 760.69 344.371C760.69 356.787 763.337 367.708 768.631 377.135C774.155 386.332 781.52 393.574 790.727 398.862C800.163 403.921 810.636 406.45 822.144 406.45C833.652 406.45 844.009 403.921 853.216 398.862ZM921.32 497.152L921.317 497.146C915.957 487.602 913.288 476.561 913.288 464.045C913.288 451.529 915.957 440.6 921.32 431.282L921.323 431.278C926.91 421.744 934.482 414.41 944.033 409.291C953.578 404.175 964.164 401.622 975.777 401.622C987.389 401.622 997.861 404.174 1007.18 409.292C1016.73 414.412 1024.19 421.745 1029.54 431.28C1035.14 440.598 1037.92 451.528 1037.92 464.045C1037.92 476.563 1035.14 487.606 1029.54 497.151C1024.19 506.688 1016.73 514.022 1007.18 519.142C997.861 524.261 987.389 526.813 975.777 526.813C964.164 526.813 953.578 524.26 944.033 519.144C934.482 514.024 926.91 506.691 921.323 497.157L921.32 497.152ZM1006.85 518.536C1016.29 513.478 1023.65 506.235 1028.94 496.809C1034.47 487.382 1037.23 476.461 1037.23 464.045C1037.23 451.629 1034.47 440.823 1028.94 431.626C1023.65 422.199 1016.29 414.957 1006.85 409.899C997.642 404.84 987.285 402.311 975.777 402.311C964.269 402.311 953.796 404.84 944.36 409.899C934.923 414.957 927.443 422.199 921.919 431.626C916.625 440.823 913.978 451.629 913.978 464.045C913.978 476.461 916.625 487.382 921.919 496.809C927.443 506.235 934.923 513.478 944.36 518.536C953.796 523.594 964.269 526.123 975.777 526.123C987.285 526.123 997.642 523.594 1006.85 518.536ZM962.658 271.947L996.146 293.329L836.299 534.055L802.81 512.673L962.658 271.947ZM805.862 322.804C802.254 327.517 800.393 334.668 800.393 344.371C800.393 352.791 801.987 359.671 805.127 365.052C808.42 370.307 814.027 372.996 822.144 372.996C829.341 372.996 834.639 370.619 838.164 365.943C841.717 361.229 843.549 354.076 843.549 344.371C843.549 334.666 841.717 327.514 838.164 322.8C834.639 318.123 829.341 315.746 822.144 315.746C814.827 315.746 809.443 318.126 805.862 322.804ZM804.536 365.409C801.314 359.891 799.703 352.878 799.703 344.371C799.703 324.828 807.183 315.056 822.144 315.056C836.874 315.056 844.239 324.828 844.239 344.371C844.239 363.915 836.874 373.686 822.144 373.686C813.858 373.686 807.989 370.927 804.536 365.409ZM959.492 442.74C955.886 447.395 954.027 454.458 954.027 464.045C954.027 472.46 955.619 479.459 958.764 485.076C962.056 490.328 967.662 493.015 975.777 493.015C982.972 493.015 988.268 490.611 991.795 485.878C995.349 481.106 997.182 473.866 997.182 464.045C997.182 454.456 995.35 447.391 991.799 442.735C988.275 438.115 982.978 435.765 975.777 435.765C968.457 435.765 963.072 438.118 959.492 442.74ZM958.169 485.428C954.947 479.68 953.336 472.552 953.336 464.045C953.336 444.732 960.816 435.075 975.777 435.075C990.507 435.075 997.872 444.732 997.872 464.045C997.872 483.818 990.507 493.705 975.777 493.705C967.491 493.705 961.622 490.946 958.169 485.428Z" fill="black" fill-opacity="0.4"/>
</svg>
