<svg width="601" height="597" viewBox="0 0 601 597" fill="none" xmlns="http://www.w3.org/2000/svg">
<path d="M302.5 333.5C302.5 362.833 296.833 389 285.5 412C274.5 434.667 259.167 452.5 239.5 465.5C220.167 478.5 198.167 485 173.5 485C148.833 485 126.667 478.5 107 465.5C87.6667 452.5 72.3333 434.667 61 412C50 389 44.5 362.833 44.5 333.5C44.5 304.167 50 278.167 61 255.5C72.3333 232.5 87.6667 214.5 107 201.5C126.667 188.167 148.833 181.5 173.5 181.5C198.167 181.5 220.167 188.167 239.5 201.5C259.167 214.5 274.5 232.5 285.5 255.5C296.833 278.167 302.5 304.167 302.5 333.5ZM235 333.5C235 306.833 229.167 285.167 217.5 268.5C206.167 251.5 191.5 243 173.5 243C154.833 243 139.833 251.5 128.5 268.5C117.167 285.167 111.5 306.833 111.5 333.5C111.5 360.167 117.167 381.833 128.5 398.5C139.833 415.167 154.833 423.5 173.5 423.5C191.5 423.5 206.167 415.167 217.5 398.5C229.167 381.833 235 360.167 235 333.5Z" fill="#D0D0D0"/>
<path d="M265.5 402L265.051 401.779L265.05 401.782L265.5 402ZM219.5 455.5L219.224 455.083L219.221 455.085L219.5 455.5ZM87 455.5L86.721 455.915L86.7243 455.917L87 455.5ZM41 402L40.5489 402.216L40.5528 402.224L41 402ZM41 245.5L40.5515 245.279L40.5502 245.282L41 245.5ZM87 191.5L87.279 191.915L87.2806 191.914L87 191.5ZM219.5 191.5L219.216 191.912L219.224 191.917L219.5 191.5ZM265.5 245.5L265.049 245.716L265.053 245.724L265.5 245.5ZM197.5 258.5L197.084 258.777L197.09 258.787L197.5 258.5ZM108.5 258.5L108.913 258.781L108.916 258.777L108.5 258.5ZM108.5 388.5L108.087 388.781L108.087 388.781L108.5 388.5ZM197.5 388.5L197.09 388.213L197.087 388.219L197.5 388.5ZM282 323.5C282 352.768 276.346 378.857 265.052 401.779L265.949 402.221C277.32 379.143 283 352.899 283 323.5H282ZM265.05 401.782C254.087 424.373 238.811 442.136 219.224 455.083L219.776 455.917C239.522 442.864 254.913 424.96 265.95 402.218L265.05 401.782ZM219.221 455.085C199.975 468.026 178.073 474.5 153.5 474.5V475.5C178.26 475.5 200.358 468.974 219.779 455.915L219.221 455.085ZM153.5 474.5C128.927 474.5 106.857 468.026 87.2757 455.083L86.7243 455.917C106.477 468.974 128.74 475.5 153.5 475.5V474.5ZM87.279 455.085C68.0235 442.137 52.7454 424.373 41.4472 401.776L40.5528 402.224C51.9212 424.961 67.3098 442.863 86.721 455.915L87.279 455.085ZM41.4511 401.784C30.4878 378.861 25 352.77 25 323.5H24C24 352.897 29.5122 379.139 40.5489 402.216L41.4511 401.784ZM25 323.5C25 294.23 30.4879 268.307 41.4498 245.718L40.5502 245.282C29.5121 268.027 24 294.103 24 323.5H25ZM41.4485 245.721C52.7472 222.791 68.0253 204.861 87.279 191.915L86.721 191.085C67.3081 204.139 51.9194 222.209 40.5515 245.279L41.4485 245.721ZM87.2806 191.914C106.861 178.639 128.929 172 153.5 172V171C128.737 171 106.472 177.694 86.7194 191.086L87.2806 191.914ZM153.5 172C178.071 172 199.971 178.639 219.216 191.912L219.784 191.088C200.363 177.694 178.263 171 153.5 171V172ZM219.224 191.917C238.809 204.863 254.085 222.791 265.049 245.716L265.951 245.284C254.915 222.209 239.524 204.137 219.776 191.083L219.224 191.917ZM265.053 245.724C276.346 268.311 282 294.232 282 323.5H283C283 294.101 277.32 268.023 265.947 245.276L265.053 245.724ZM215.5 323.5C215.5 296.762 209.651 274.987 197.91 258.213L197.09 258.787C208.682 275.347 214.5 296.904 214.5 323.5H215.5ZM197.916 258.223C186.505 241.106 171.692 232.5 153.5 232.5V233.5C171.308 233.5 185.829 241.894 197.084 258.777L197.916 258.223ZM153.5 232.5C134.648 232.5 119.5 241.099 108.084 258.223L108.916 258.777C120.167 241.901 135.018 233.5 153.5 233.5V232.5ZM108.087 258.219C96.6812 274.991 91 296.765 91 323.5H92C92 296.902 97.6521 275.342 108.913 258.781L108.087 258.219ZM91 323.5C91 350.235 96.6812 372.009 108.087 388.781L108.913 388.219C97.6521 371.658 92 350.098 92 323.5H91ZM108.087 388.781C119.504 405.572 134.653 414 153.5 414V413C135.014 413 120.162 404.762 108.913 388.219L108.087 388.781ZM153.5 414C171.687 414 186.5 405.566 197.913 388.781L197.087 388.219C185.833 404.768 171.313 413 153.5 413V414ZM197.91 388.787C209.651 372.013 215.5 350.238 215.5 323.5H214.5C214.5 350.096 208.682 371.653 197.09 388.213L197.91 388.787Z" fill="black" fill-opacity="0.4"/>
<ellipse cx="323.5" cy="583.5" rx="88.5" ry="6.5" fill="#C4C4C4" fill-opacity="0.5"/>
<path d="M526.483 218.895L559.946 240.219L400.219 480.292L366.755 458.967L526.483 218.895ZM386.074 229.213C397.574 229.213 407.923 231.735 417.123 236.78C426.552 241.824 433.912 249.047 439.202 258.448C444.722 267.849 447.481 278.741 447.481 291.123C447.481 303.505 444.722 314.396 439.202 323.798C433.912 333.199 426.552 340.422 417.123 345.466C407.923 350.511 397.574 353.033 386.074 353.033C374.575 353.033 364.11 350.511 354.681 345.466C345.481 340.192 338.121 332.969 332.602 323.798C327.312 314.396 324.667 303.505 324.667 291.123C324.667 278.741 327.312 267.964 332.602 258.792C338.121 249.391 345.481 242.168 354.681 237.124C364.11 231.85 374.575 229.213 386.074 229.213ZM386.074 261.888C371.125 261.888 363.65 271.633 363.65 291.123C363.65 299.607 365.26 306.6 368.48 312.104C371.93 317.607 377.795 320.358 386.074 320.358C400.794 320.358 408.153 310.613 408.153 291.123C408.153 271.633 400.794 261.888 386.074 261.888ZM539.592 348.905C551.092 348.905 561.441 351.428 570.641 356.472C580.071 361.517 587.43 368.739 592.72 378.141C598.24 387.312 601 398.089 601 410.471C601 422.853 598.24 433.745 592.72 443.146C587.43 452.547 580.071 459.77 570.641 464.814C561.441 469.859 551.092 472.381 539.592 472.381C528.093 472.381 517.628 469.859 508.199 464.814C498.769 459.77 491.294 452.547 485.775 443.146C480.485 433.745 477.84 422.853 477.84 410.471C477.84 398.089 480.485 387.312 485.775 378.141C491.294 368.739 498.769 361.517 508.199 356.472C517.628 351.428 528.093 348.905 539.592 348.905ZM539.592 381.58C524.643 381.58 517.168 391.21 517.168 410.471C517.168 418.955 518.778 426.063 521.998 431.796C525.448 437.299 531.313 440.05 539.592 440.05C554.312 440.05 561.671 430.191 561.671 410.471C561.671 391.21 554.312 381.58 539.592 381.58Z" fill="#D0D0D0"/>
<path fill-rule="evenodd" clip-rule="evenodd" d="M519.457 205L554.11 227.126L393.499 469.002L358.847 446.876L519.457 205ZM347.391 333.465L347.382 333.46C338.073 328.113 330.623 320.786 325.039 311.49L325.034 311.481L325.029 311.472C319.669 301.928 317 290.887 317 278.371C317 265.856 319.669 254.927 325.032 245.609L325.035 245.604C330.619 236.076 338.071 228.744 347.39 223.623C356.936 218.274 367.525 215.603 379.144 215.603C390.755 215.603 401.228 218.156 410.545 223.274C420.095 228.394 427.554 235.728 432.91 245.265C438.502 254.81 441.287 265.853 441.287 278.371C441.287 290.89 438.502 301.933 432.91 311.478C427.554 321.014 420.095 328.349 410.545 333.469C401.228 338.587 390.755 341.14 379.144 341.14C367.53 341.14 356.945 338.586 347.4 333.47L347.391 333.465ZM410.216 332.862C419.652 327.804 427.017 320.562 432.311 311.135C437.835 301.708 440.597 290.787 440.597 278.371C440.597 265.956 437.835 255.034 432.311 245.608C427.017 236.181 419.652 228.938 410.216 223.88C401.009 218.822 390.652 216.293 379.144 216.293C367.636 216.293 357.163 218.937 347.727 224.225C338.52 229.283 331.155 236.526 325.631 245.953C320.337 255.149 317.69 265.956 317.69 278.371C317.69 290.787 320.337 301.708 325.631 311.135C331.155 320.332 338.52 327.574 347.727 332.862C357.163 337.921 367.636 340.45 379.144 340.45C390.652 340.45 401.009 337.921 410.216 332.862ZM478.32 431.152L478.317 431.146C472.957 421.602 470.288 410.561 470.288 398.045C470.288 385.529 472.957 374.6 478.32 365.282L478.323 365.278C483.91 355.744 491.482 348.41 501.033 343.291C510.578 338.175 521.164 335.622 532.777 335.622C544.389 335.622 554.861 338.174 564.178 343.292C573.728 348.412 581.185 355.745 586.542 365.28C592.136 374.598 594.921 385.528 594.921 398.045C594.921 410.563 592.135 421.606 586.544 431.151C581.187 440.688 573.729 448.022 564.178 453.142C554.861 458.261 544.389 460.813 532.777 460.813C521.164 460.813 510.578 458.26 501.033 453.144C491.482 448.024 483.91 440.691 478.323 431.157L478.32 431.152ZM563.849 452.536C573.285 447.478 580.651 440.235 585.944 430.809C591.468 421.382 594.23 410.461 594.23 398.045C594.23 385.629 591.468 374.823 585.944 365.626C580.651 356.199 573.285 348.957 563.849 343.899C554.642 338.84 544.285 336.311 532.777 336.311C521.269 336.311 510.796 338.84 501.36 343.899C491.923 348.957 484.443 356.199 478.919 365.626C473.625 374.823 470.978 385.629 470.978 398.045C470.978 410.461 473.625 421.382 478.919 430.809C484.443 440.235 491.923 447.478 501.36 452.536C510.796 457.594 521.269 460.123 532.777 460.123C544.285 460.123 554.642 457.594 563.849 452.536ZM519.658 205.947L553.146 227.329L393.299 468.055L359.81 446.673L519.658 205.947ZM362.862 256.804C359.254 261.517 357.393 268.668 357.393 278.371C357.393 286.791 358.987 293.671 362.127 299.052C365.42 304.307 371.027 306.996 379.144 306.996C386.341 306.996 391.639 304.619 395.164 299.943C398.717 295.229 400.549 288.076 400.549 278.371C400.549 268.666 398.717 261.514 395.164 256.8C391.639 252.123 386.341 249.746 379.144 249.746C371.827 249.746 366.443 252.126 362.862 256.804ZM361.536 299.409C358.314 293.891 356.703 286.878 356.703 278.371C356.703 258.828 364.183 249.056 379.144 249.056C393.874 249.056 401.239 258.828 401.239 278.371C401.239 297.915 393.874 307.686 379.144 307.686C370.858 307.686 364.989 304.927 361.536 299.409ZM516.492 376.74C512.886 381.395 511.027 388.458 511.027 398.045C511.027 406.46 512.619 413.459 515.764 419.076C519.056 424.328 524.662 427.015 532.777 427.015C539.972 427.015 545.268 424.611 548.795 419.878C552.349 415.106 554.182 407.866 554.182 398.045C554.182 388.456 552.35 381.391 548.799 376.735C545.275 372.115 539.978 369.765 532.777 369.765C525.457 369.765 520.072 372.118 516.492 376.74ZM515.169 419.428C511.947 413.68 510.336 406.552 510.336 398.045C510.336 378.732 517.816 369.075 532.777 369.075C547.507 369.075 554.872 378.732 554.872 398.045C554.872 417.818 547.507 427.705 532.777 427.705C524.491 427.705 518.622 424.946 515.169 419.428Z" fill="black" fill-opacity="0.4"/>
</svg>
