<svg width="360" height="360" viewBox="0 0 360 360" fill="none" xmlns="http://www.w3.org/2000/svg">
<path fill-rule="evenodd" clip-rule="evenodd" d="M180 360C279.411 360 360 279.411 360 180C360 80.5886 279.411 0 180 0C80.5889 0 0 80.5886 0 180C0 279.411 80.5889 360 180 360ZM128.767 180C128.767 151.617 151.661 128.722 180.044 128.722C208.428 128.722 231.322 151.617 231.322 180C231.322 208.383 208.428 231.278 180.044 231.278C151.661 231.278 128.767 208.383 128.767 180ZM146.708 180C146.708 198.387 161.703 213.337 180.044 213.337C198.387 213.337 213.382 198.387 213.382 180C213.382 161.613 198.431 146.663 180.044 146.663C161.658 146.663 146.708 161.613 146.708 180ZM233.419 138.585C240.024 138.585 245.38 133.275 245.38 126.625C245.38 120.02 240.024 114.665 233.419 114.665C226.814 114.665 221.459 120.02 221.459 126.625C221.459 133.23 226.77 138.585 233.419 138.585ZM263.187 96.8582C274.923 108.551 278.583 122.742 279.342 138.764C280.279 155.276 280.279 204.724 279.342 221.236C278.539 237.258 274.879 251.449 263.187 263.142C251.494 274.879 237.302 278.538 221.281 279.297C204.769 280.234 155.276 280.234 138.764 279.297C122.742 278.494 108.595 274.834 96.8584 263.142C85.1211 251.449 81.4614 237.258 80.7031 221.236C79.7656 204.724 79.7656 155.231 80.7031 138.719C81.5063 122.698 85.1211 108.506 96.8584 96.8135C108.595 85.1211 122.787 81.4617 138.764 80.7029C155.276 79.7656 204.769 79.7656 221.281 80.7029C237.302 81.5061 251.494 85.1658 263.187 96.8582ZM238.998 257.965C247.79 254.439 254.529 247.7 258.01 238.953C262.488 227.7 262.239 203.084 262.077 187.126C262.05 184.479 262.026 182.07 262.026 180C262.026 177.929 262.05 175.521 262.077 172.874C262.239 156.926 262.488 132.338 258.01 121.047C254.484 112.255 247.745 105.516 238.998 102.035C227.709 97.5808 202.974 97.8181 187.021 97.9709C184.432 97.9958 182.075 98.0186 180.044 98.0186C177.974 98.0186 175.565 97.9941 172.919 97.9673C156.971 97.8059 132.383 97.5566 121.091 102.035C112.299 105.561 105.561 112.3 102.08 121.047C97.6255 132.336 97.8623 157.073 98.0156 173.025C98.0405 175.613 98.063 177.969 98.063 180C98.063 182.07 98.0386 184.478 98.0117 187.124C97.8501 203.072 97.6011 227.661 102.08 238.953C105.605 247.745 112.344 254.484 121.091 257.965C132.38 262.419 157.116 262.182 173.069 262.029C175.657 262.004 178.014 261.981 180.044 261.981C182.115 261.981 184.523 262.006 187.17 262.033C203.119 262.194 227.707 262.443 238.998 257.965Z" fill="white"/>
</svg>
