<svg width="1656" height="372" viewBox="0 0 1656 372" fill="none" xmlns="http://www.w3.org/2000/svg">
<path fill-rule="evenodd" clip-rule="evenodd" d="M235.864 351.163C307.928 327.658 360 259.91 360 180C360 80.5887 279.411 0 180 0C80.5887 0 0 80.5887 0 180C0 279.411 80.5887 360 180 360C181.828 360 183.651 359.973 185.466 359.919V360L187.133 359.861C192.512 359.652 197.83 359.206 203.077 358.534L209.5 358L215.956 356.408C220.858 355.414 225.687 354.222 230.436 352.838L235.864 351.5V351.163ZM235.864 351.163V247.125H273.442L280.597 200.433H235.864V170.133C235.864 157.359 242.113 144.908 262.147 144.908H282.484V105.154C282.484 105.154 264.029 102 246.384 102C209.546 102 185.466 124.363 185.466 164.847V200.433H144.517V247.125H185.466V359.919C186.022 359.902 186.578 359.883 187.133 359.861L203.077 358.534C207.42 357.979 211.715 357.268 215.956 356.408L230.436 352.838C232.257 352.308 234.067 351.749 235.864 351.163ZM612 372C711.411 372 792 291.411 792 192C792 92.5887 711.411 12 612 12C512.589 12 432 92.5887 432 192C432 291.411 512.589 372 612 372ZM1224 180C1224 279.411 1143.41 360 1044 360C944.589 360 864 279.411 864 180C864 80.5887 944.589 0 1044 0C1143.41 0 1224 80.5887 1224 180ZM1476 360C1575.41 360 1656 279.411 1656 180C1656 80.5887 1575.41 0 1476 0C1376.59 0 1296 80.5887 1296 180C1296 279.411 1376.59 360 1476 360ZM1571.82 132.003C1569.52 123.342 1562.74 116.521 1554.14 114.206C1538.54 110 1476 110 1476 110C1476 110 1413.46 110 1397.86 114.206C1389.26 116.521 1382.48 123.342 1380.18 132.003C1376 147.701 1376 180.454 1376 180.454C1376 180.454 1376 213.208 1380.18 228.906C1382.48 237.567 1389.26 244.104 1397.86 246.419C1413.46 250.625 1476 250.625 1476 250.625C1476 250.625 1538.54 250.625 1554.14 246.419C1562.74 244.104 1569.52 237.567 1571.82 228.906C1576 213.208 1576 180.454 1576 180.454C1576 180.454 1576 147.701 1571.82 132.003ZM1455.55 150.717L1507.82 180.455L1455.55 210.192V150.717ZM953.304 274H994.768V140.47H953.304V274ZM950 98.0139C950 111.273 960.754 122.256 974.013 122.256C987.268 122.256 998.027 111.273 998.027 98.0139C998.027 91.645 995.497 85.537 990.993 81.0335C986.49 76.53 980.382 74 974.013 74C967.645 74 961.537 76.53 957.033 81.0335C952.53 85.537 950 91.645 950 98.0139ZM1108.58 274H1149.96H1150V200.65C1150 164.757 1142.29 137.122 1100.32 137.122C1080.15 137.122 1066.62 148.194 1061.09 158.685H1060.51V140.47H1020.74V274H1062.16V207.882C1062.16 190.471 1065.46 173.641 1087.02 173.641C1108.27 173.641 1108.58 193.507 1108.58 208.999V274ZM697.442 152.453C697.569 154.228 697.569 156.004 697.569 157.779C697.569 211.927 656.326 274.319 580.944 274.319C557.721 274.319 536.147 267.598 518 255.931C521.3 256.312 524.472 256.438 527.898 256.438C547.061 256.438 564.701 249.971 578.787 238.939C560.767 238.558 545.665 226.765 540.462 210.533C543 210.913 545.538 211.166 548.203 211.166C551.883 211.166 555.564 210.659 558.99 209.772C540.208 205.967 526.122 189.482 526.122 169.572V169.065C531.578 172.109 537.924 174.011 544.649 174.264C533.609 166.909 526.375 154.355 526.375 140.152C526.375 132.543 528.406 125.569 531.959 119.482C552.137 144.337 582.467 160.568 616.477 162.344C615.843 159.301 615.462 156.131 615.462 152.96C615.462 130.387 633.736 112 656.452 112C668.254 112 678.914 116.946 686.401 124.935C695.665 123.16 704.548 119.735 712.416 115.044C709.37 124.555 702.898 132.544 694.396 137.616C702.645 136.729 710.64 134.445 718 131.275C712.417 139.391 705.437 146.619 697.442 152.453Z" fill="white"/>
</svg>
