<svg width="144" height="144" viewBox="0 0 144 144" fill="none" xmlns="http://www.w3.org/2000/svg">
<circle cx="72" cy="72" r="72" fill="black"/>
<mask id="mask0_875:40" style="mask-type:alpha" maskUnits="userSpaceOnUse" x="0" y="0" width="144" height="144">
<circle cx="72" cy="72" r="72" fill="black"/>
</mask>
<g mask="url(#mask0_875:40)">
<path d="M13.1172 59.9819V78.4728C13.1172 80.291 13.4626 81.5455 14.1535 82.2364C14.8444 82.9273 16.0626 83.2728 17.8081 83.2728H21.299V86.5455H17.2081C14.5172 86.5455 12.5172 85.9273 11.2081 84.691C9.89899 83.4182 9.24444 81.3455 9.24444 78.4728V59.9819H1.09082L1.81809 56.7273L9.24444 56.7637V49.291H13.1172V56.7637H21.299V59.9819H13.1172Z" fill="white"/>
<path d="M49.0324 56.7637V86.5455H45.2142V81.3092C44.3415 83.1637 42.996 84.5819 41.1778 85.5637C39.3596 86.5455 37.3233 87.0364 35.0687 87.0364C31.5051 87.0364 28.596 85.9455 26.3415 83.7637C24.0869 81.5455 22.9596 78.3455 22.9596 74.1637V56.7637H26.7233V73.7273C26.7233 76.9637 27.5233 79.4364 29.1233 81.1455C30.7596 82.8546 32.9778 83.7092 35.7778 83.7092C38.6505 83.7092 40.9415 82.8001 42.6505 80.9819C44.3596 79.1637 45.2142 76.491 45.2142 72.9637V56.7637H49.0324Z" fill="white"/>
<path d="M57.204 62.0546C58.0403 60.2001 59.313 58.7637 61.0221 57.7455C62.7676 56.7273 64.8949 56.2183 67.404 56.2183V60.2001H66.3676C63.604 60.2001 61.3858 60.9455 59.713 62.4364C58.0403 63.9273 57.204 66.4183 57.204 69.9092V86.5455H53.3858V56.7637H57.204V62.0546Z" fill="white"/>
<path d="M70.6933 51.1455C69.9297 51.1455 69.2751 50.8728 68.7297 50.3273C68.1842 49.7819 67.9115 49.1092 67.9115 48.3092C67.9115 47.5092 68.1842 46.8546 68.7297 46.3455C69.2751 45.8001 69.9297 45.5273 70.6933 45.5273C71.4569 45.5273 72.1115 45.8001 72.6569 46.3455C73.2024 46.8546 73.4751 47.5092 73.4751 48.3092C73.4751 49.1092 73.2024 49.7819 72.6569 50.3273C72.1115 50.8728 71.4569 51.1455 70.6933 51.1455ZM72.6024 56.7637V86.5455H68.7842V56.7637H72.6024Z" fill="white"/>
<path d="M90.8487 56.2183C94.4123 56.2183 97.3214 57.3273 99.576 59.5455C101.831 61.7273 102.958 64.9092 102.958 69.091V86.5455H99.1942V69.5273C99.1942 66.291 98.376 63.8183 96.7396 62.1092C95.1396 60.4001 92.9396 59.5455 90.1396 59.5455C87.2669 59.5455 84.976 60.4546 83.2669 62.2728C81.5578 64.091 80.7032 66.7637 80.7032 70.291V86.5455H76.8851V56.7637H80.7032V61.8364C81.6487 60.0183 83.0123 58.6364 84.7942 57.691C86.576 56.7092 88.5942 56.2183 90.8487 56.2183Z" fill="white"/>
<path d="M119.529 56.3273C122.329 56.3273 124.766 56.9819 126.838 58.291C128.911 59.6001 130.402 61.2546 131.311 63.2546V56.7637H135.129V87.3092C135.129 90.0364 134.529 92.4546 133.329 94.5637C132.166 96.6728 130.529 98.291 128.42 99.4183C126.311 100.582 123.911 101.164 121.22 101.164C117.402 101.164 114.22 100.255 111.675 98.4364C109.166 96.6183 107.602 94.1455 106.984 91.0182H110.748C111.402 93.091 112.638 94.7455 114.457 95.9819C116.311 97.2183 118.566 97.8364 121.22 97.8364C123.148 97.8364 124.875 97.4182 126.402 96.5819C127.929 95.7819 129.129 94.5819 130.002 92.9819C130.875 91.3819 131.311 89.491 131.311 87.3092V79.9455C130.366 81.9819 128.857 83.6728 126.784 85.0182C124.748 86.3273 122.329 86.9819 119.529 86.9819C116.802 86.9819 114.348 86.3455 112.166 85.0728C110.02 83.8001 108.329 82.0001 107.093 79.6728C105.893 77.3455 105.293 74.6546 105.293 71.6001C105.293 68.5455 105.893 65.8728 107.093 63.5819C108.329 61.2546 110.02 59.4728 112.166 58.2364C114.348 56.9637 116.802 56.3273 119.529 56.3273ZM131.311 71.6546C131.311 69.2546 130.82 67.1455 129.838 65.3273C128.857 63.5092 127.511 62.1092 125.802 61.1273C124.129 60.1455 122.275 59.6546 120.238 59.6546C118.129 59.6546 116.238 60.1273 114.566 61.0728C112.893 62.0183 111.566 63.4001 110.584 65.2183C109.638 67.0001 109.166 69.1273 109.166 71.6001C109.166 74.0364 109.638 76.1819 110.584 78.0364C111.566 79.8546 112.893 81.2546 114.566 82.2364C116.238 83.1819 118.129 83.6546 120.238 83.6546C122.275 83.6546 124.129 83.1637 125.802 82.1819C127.511 81.2001 128.857 79.8001 129.838 77.9819C130.82 76.1637 131.311 74.0546 131.311 71.6546Z" fill="white"/>
<rect x="2.18164" y="90.9092" width="99.6364" height="3.63636" fill="white"/>
<rect x="2.18164" y="96.7271" width="99.6364" height="3.63636" fill="white"/>
</g>
</svg>
