<svg xmlns="http://www.w3.org/2000/svg" viewBox="0 0 750 500"><defs><style>.cls-1{fill:#e0e0e0;}.cls-2,.cls-8{fill:#fafafa;}.cls-3{fill:#ebebeb;}.cls-4{fill:#f5f5f5;}.cls-5{fill:#1c92ff;}.cls-6{fill:#263238;}.cls-7{fill:#455a64;}.cls-8{stroke:#7a7a7a;stroke-width:0.5px;}.cls-8,.cls-9{stroke-miterlimit:10;}.cls-9{fill:none;stroke:#ebebeb;stroke-width:5px;}</style></defs><g id="Background_Complete" data-name="Background Complete"><rect class="cls-1" x="57.01" y="45.24" width="82" height="85.47"/><rect class="cls-2" x="51.46" y="45.24" width="82" height="85.47"/><path class="cls-1" d="M133.48,130.74h-82V45.21h82Zm-82-.06h82V45.26h-82Z"/><rect class="cls-2" x="62.48" y="56.73" width="59.95" height="62.49"/><path class="cls-1" d="M62.48,119.64A9.76,9.76,0,0,1,61,121.36c-1,1-2.3,2.37-3.81,3.86S54.3,128,53.27,129a9.53,9.53,0,0,1-1.73,1.44A9.57,9.57,0,0,1,53,128.7c1-1,2.31-2.38,3.82-3.87s2.9-2.82,3.93-3.76A8.83,8.83,0,0,1,62.48,119.64Z"/><path class="cls-1" d="M122.43,119.48a9.36,9.36,0,0,1,1.72,1.48c1,1,2.38,2.3,3.86,3.81s2.81,2.9,3.75,3.92a9.93,9.93,0,0,1,1.45,1.73,9,9,0,0,1-1.72-1.47c-1-1-2.38-2.31-3.87-3.82s-2.81-2.9-3.75-3.92A9.4,9.4,0,0,1,122.43,119.48Z"/><path class="cls-1" d="M122.27,56.89a9.76,9.76,0,0,1,1.48-1.72c1-1,2.3-2.37,3.81-3.86s2.89-2.81,3.91-3.75a9.36,9.36,0,0,1,1.74-1.44,10,10,0,0,1-1.48,1.71c-.95,1-2.3,2.38-3.81,3.87S125,54.52,124,55.46A9.2,9.2,0,0,1,122.27,56.89Z"/><path class="cls-1" d="M62.32,57.05a10.48,10.48,0,0,1-1.72-1.48c-1-1-2.38-2.31-3.87-3.81s-2.81-2.9-3.75-3.92a9.53,9.53,0,0,1-1.44-1.73,9.57,9.57,0,0,1,1.71,1.47c1,1,2.38,2.31,3.87,3.82s2.82,2.9,3.76,3.92A9.53,9.53,0,0,1,62.32,57.05Z"/><path class="cls-1" d="M122.27,119.22a1.85,1.85,0,0,1,0-.3c0-.22,0-.5,0-.88,0-.78,0-1.91,0-3.37,0-3,0-7.27-.06-12.74,0-10.94-.07-26.53-.11-45.2l.23.23L62.49,57h0l.27-.26c0,22.93,0,44.39,0,62.49l-.23-.23,43.29.12,12.16.06,3.22,0,.83,0h0l-.8,0-3.18,0-12.11.06-43.43.12h-.23v-.23c0-18.1,0-39.56,0-62.49v-.27h.28l59.78,0h.23v.23c0,18.73-.09,34.37-.12,45.35,0,5.45,0,9.74-.06,12.69q0,2.16,0,3.33c0,.36,0,.64,0,.84S122.27,119.22,122.27,119.22Z"/><rect class="cls-3" x="82.45" y="77.97" width="20" height="20"/><rect class="cls-1" x="630.55" y="143.42" width="8.57" height="42.66" transform="translate(-0.87 3.4) rotate(-0.31)"/><rect class="cls-3" x="556.23" y="143.57" width="22.2" height="23.55" transform="translate(-0.82 3.04) rotate(-0.31)"/><rect class="cls-4" x="578.33" y="143.45" width="22.2" height="23.55" transform="translate(-0.82 3.16) rotate(-0.31)"/><path class="cls-1" d="M556.21,150.14c14.75.12,29.54,0,44.29-.21a.24.24,0,0,0,0-.47q-22.14-.12-44.3.27a.21.21,0,0,0,0,.41Z"/><rect class="cls-3" x="542.38" y="166.78" width="40.33" height="19.19" transform="translate(-0.94 3.02) rotate(-0.31)"/><rect class="cls-4" x="582.52" y="166.56" width="40.33" height="19.19" transform="translate(-0.93 3.23) rotate(-0.31)"/><path class="cls-1" d="M542.36,172.22c26.79.31,53.68,0,80.47-.4a.24.24,0,0,0,0-.47c-26.79-.14-53.68-.12-80.47.47a.2.2,0,0,0,0,.4Z"/><rect class="cls-1" x="527.28" y="186.08" width="156.26" height="6.88"/><rect class="cls-1" x="552.86" y="189.38" width="6.34" height="23.46"/><rect class="cls-1" x="647.55" y="189.38" width="6.34" height="23.46"/><rect class="cls-3" x="638.96" y="127.52" width="8.57" height="58.67" transform="translate(-0.83 3.45) rotate(-0.31)"/><rect class="cls-4" x="647.58" y="138.45" width="13.32" height="47.54" transform="translate(-0.86 3.51) rotate(-0.31)"/><path class="cls-1" d="M660.68,147.58a96.54,96.54,0,0,1-13.32,0,92.53,92.53,0,0,1,13.32,0Z"/><path class="cls-1" d="M660.68,145.58a96.54,96.54,0,0,1-13.32,0,96.54,96.54,0,0,1,13.32,0Z"/><path class="cls-1" d="M660.68,178.81a96.54,96.54,0,0,1-13.32,0,92.53,92.53,0,0,1,13.32,0Z"/><path class="cls-1" d="M660.68,176.81a96.54,96.54,0,0,1-13.32,0,96.54,96.54,0,0,1,13.32,0Z"/><path class="cls-1" d="M654.23,172.45c-.12,0-.23-4.8-.23-10.71s.11-10.71.23-10.71.23,4.79.23,10.71S654.36,172.45,654.23,172.45Z"/><rect class="cls-3" x="660.82" y="150.09" width="14.5" height="35.88"/><path class="cls-2" d="M668.48,176.67a3.12,3.12,0,0,1-3.24-3.23,2.8,2.8,0,0,1,1.18-2.42l.33.45a2.35,2.35,0,0,0-1,2,2.69,2.69,0,0,0,5.38,0,2.34,2.34,0,0,0-.95-2l.33-.45a2.84,2.84,0,0,1,1.17,2.42A3.12,3.12,0,0,1,668.48,176.67Z"/><path class="cls-2" d="M670.9,170.13l-.49-.28a3.7,3.7,0,0,0,.77-2.3c0-1.34-.47-1.88-1.19-1.88-1.86,0-.49,4.23-3,4.23-1,0-1.75-.81-1.75-2.42a3.91,3.91,0,0,1,.63-2.19l.48.28a3.29,3.29,0,0,0-.57,1.92c0,1.25.51,1.8,1.2,1.8,1.92,0,.56-4.23,3-4.23,1,0,1.75.89,1.75,2.52A4,4,0,0,1,670.9,170.13Z"/><path class="cls-2" d="M670.9,164.29l-.49-.28a3.7,3.7,0,0,0,.77-2.3c0-1.35-.47-1.89-1.19-1.89-1.86,0-.49,4.23-3,4.23-1,0-1.75-.8-1.75-2.42a3.9,3.9,0,0,1,.63-2.18l.48.28a3.29,3.29,0,0,0-.57,1.92c0,1.24.51,1.79,1.2,1.79,1.92,0,.56-4.23,3-4.23,1,0,1.75.9,1.75,2.52A4,4,0,0,1,670.9,164.29Z"/><path class="cls-1" d="M645.43,137.51a2.47,2.47,0,1,1-2.47-2.46A2.48,2.48,0,0,1,645.43,137.51Z"/><rect class="cls-1" x="642.2" y="144.29" width="1.52" height="34.9"/></g><g id="Plants"><path class="cls-5" d="M83.49,260.87c-7.68-11.73-7.38-28.89,1.78-39.5,2.85-3.3,6.82-6.16,11.16-5.79s8,4.19,9.37,8.44.88,8.84.09,13.23c-1.11,6.14-3,12.42-7.23,17s-9.7,9.63-15.17,6.64"/><path class="cls-5" d="M86.91,317a17.53,17.53,0,0,1,4.89-19.92c1.76-1.44,4.07-2.56,6.27-2a6.09,6.09,0,0,1,4.06,5.19,14.56,14.56,0,0,1-1.15,6.83c-1.13,3.06-2.66,6.13-5.27,8.09S89.46,319,86.91,317"/><path class="cls-5" d="M68.4,313a25.38,25.38,0,0,0-12.79-26.79c-2.92-1.52-6.52-2.42-9.47-.94s-4.46,5.19-4.22,8.55,1.85,6.48,3.64,9.34c2.5,4,5.57,7.9,9.84,9.92s10,3.56,13-.08"/><path class="cls-5" d="M69.73,284.81c3.68-11.85-2.55-26.23-12.93-33-3.23-2.11-7.31-3.58-10.91-2.21S40.09,255.09,40,259s1.41,7.74,3.15,11.28c2.44,5,5.55,9.85,10.29,12.69s12.39,5.69,16.32,1.81"/><path class="cls-6" d="M77.11,342.76a2.39,2.39,0,0,1-.12-.58q-.09-.65-.24-1.65c-.06-.37-.11-.76-.17-1.2s-.18-.9-.27-1.41c-.2-1-.4-2.16-.73-3.42l-.47-2c-.2-.68-.41-1.39-.62-2.12-.4-1.47-1-3-1.53-4.61a90.82,90.82,0,0,0-4.58-10.15,89.81,89.81,0,0,0-5.93-9.43c-1.05-1.35-2-2.68-3-3.82L58,300.71l-1.38-1.49c-.86-1-1.72-1.77-2.45-2.49l-1-1-.9-.8L51,293.81c-.28-.26-.43-.41-.41-.42s.17.1.47.34l1.31,1,.93.77,1.06,1c.76.7,1.63,1.49,2.52,2.45l1.41,1.48c.47.53,1,1.09,1.45,1.67,1,1.14,2,2.47,3.06,3.82a83.89,83.89,0,0,1,6,9.46,84.79,84.79,0,0,1,4.57,10.23c.54,1.63,1.11,3.17,1.5,4.66l.59,2.13c.16.69.31,1.36.45,2,.31,1.27.49,2.44.65,3.46.09.5.16,1,.24,1.42s.08.84.12,1.2c.06.69.11,1.24.15,1.67A2.39,2.39,0,0,1,77.11,342.76Z"/><path class="cls-6" d="M76.84,344.89a.73.73,0,0,1,0-.24c0-.18,0-.41,0-.69.06-.64.14-1.52.24-2.63.06-.58.12-1.21.19-1.9s.07-1.46.12-2.27c.06-1.63.21-3.48.16-5.53,0-1,0-2.1,0-3.22s-.12-2.28-.17-3.49c-.08-2.41-.41-5-.7-7.66A120.91,120.91,0,0,0,73.07,300a120,120,0,0,0-6.35-16.44c-1.23-2.42-2.35-4.74-3.59-6.81-.61-1-1.16-2.07-1.76-3s-1.18-1.85-1.74-2.71c-1.07-1.75-2.21-3.22-3.15-4.55-.48-.66-.91-1.29-1.33-1.84L54,263.16c-.7-.87-1.24-1.56-1.64-2.07l-.42-.55c-.09-.12-.14-.19-.13-.2l.17.17.45.51,1.72,2,1.23,1.47c.43.55.88,1.17,1.37,1.82,1,1.32,2.12,2.78,3.22,4.52l1.77,2.7c.61.94,1.17,2,1.79,3,1.27,2.07,2.4,4.4,3.65,6.82a116.12,116.12,0,0,1,6.41,16.5,117.4,117.4,0,0,1,3.62,17.32c.27,2.71.59,5.28.65,7.7.05,1.21.15,2.38.15,3.5s0,2.2,0,3.23c0,2.06-.15,3.92-.23,5.55-.06.81-.09,1.57-.16,2.27s-.16,1.32-.23,1.9c-.14,1.11-.26,2-.34,2.63,0,.27-.07.5-.1.68A.65.65,0,0,1,76.84,344.89Z"/><path class="cls-6" d="M96.82,229.75a1.55,1.55,0,0,1-.1.22l-.33.62-1.31,2.34c-.29.51-.62,1.06-1,1.69l-1,2.07-1.18,2.37c-.4.84-.78,1.76-1.2,2.71s-.87,1.95-1.3,3l-1.27,3.31c-.22.57-.45,1.15-.67,1.74s-.41,1.2-.62,1.82l-1.29,3.81c-1.62,5.26-3.16,11.12-4.46,17.34S79,285,78.31,290.48s-1,10.42-1.09,14.59c-.1,2.08-.12,4-.13,5.62s0,3.08,0,4.24,0,2,0,2.69v.7a.68.68,0,0,1,0,.24.75.75,0,0,1,0-.24c0-.19,0-.42,0-.7,0-.65-.07-1.55-.13-2.68s-.09-2.59-.09-4.25,0-3.55.06-5.63c.07-4.18.44-9.14,1-14.63s1.5-11.49,2.76-17.74,2.87-12.11,4.52-17.38l1.31-3.81q.33-.93.63-1.83l.69-1.74,1.3-3.31c.44-1.05.91-2,1.33-3s.83-1.87,1.24-2.71l1.22-2.36c.39-.73.74-1.42,1.07-2.05s.69-1.17,1-1.68l1.39-2.29.37-.59A1.18,1.18,0,0,1,96.82,229.75Z"/><path class="cls-6" d="M94.21,301.77a9.42,9.42,0,0,1-.82,1.43c-.56.9-1.33,2.22-2.23,3.88s-1.9,3.68-2.91,6-2,4.86-2.82,7.61-1.48,5.43-2,7.88-.78,4.69-1,6.57-.3,3.41-.34,4.46a10.13,10.13,0,0,1-.14,1.65,12,12,0,0,1-.06-1.65c0-1.06,0-2.6.19-4.49a63.24,63.24,0,0,1,.86-6.62A73.06,73.06,0,0,1,85,320.51a75,75,0,0,1,2.88-7.65,63.77,63.77,0,0,1,3-5.95c1-1.64,1.77-3,2.38-3.81A9.33,9.33,0,0,1,94.21,301.77Z"/><polygon class="cls-7" points="62.04 337.48 95.75 337.48 91.67 371.9 66.24 371.9 62.04 337.48"/><polygon class="cls-6" points="63.27 368.19 66.14 371.9 91.67 371.9 94.61 368.3 63.27 368.19"/><path class="cls-2" d="M94.43,347.6c0,.14-7,.25-15.62.25s-15.62-.11-15.62-.25,7-.25,15.62-.25S94.43,347.46,94.43,347.6Z"/><path class="cls-2" d="M94.43,349.89c0,.14-7,.25-15.62.25s-15.62-.11-15.62-.25,7-.25,15.62-.25S94.43,349.75,94.43,349.89Z"/><path class="cls-2" d="M94,352.11c0,.14-6.75.25-15.07.25s-15.08-.11-15.08-.25,6.75-.25,15.08-.25S94,352,94,352.11Z"/><path class="cls-6" d="M67.19,263.28a1.37,1.37,0,0,1,0,.33c0,.25,0,.56-.08.93-.09.87-.2,2-.35,3.43-.3,2.9-.75,6.89-1.27,11.3l-.06.5v.15h-.15c-4.33.07-8.23.11-11,.12H50.9L50,280l-.31,0,.31,0,.9,0,3.33-.11c2.81-.07,6.71-.15,11-.22l-.17.15.06-.5c.52-4.41,1-8.4,1.37-11.28.19-1.41.34-2.56.46-3.42,0-.37.1-.68.14-.93A1.09,1.09,0,0,1,67.19,263.28Z"/><path class="cls-6" d="M59.53,253a1.19,1.19,0,0,1,0,.33c0,.26,0,.58,0,1,0,.89,0,2.09,0,3.55,0,3-.13,7.14-.24,11.72,0,.18,0,.37,0,.54v.18H59.1A105,105,0,0,0,47.76,270c-1.44,0-2.61.1-3.41.15l-.93,0c-.21,0-.33,0-.33,0l.32-.06c.21,0,.52-.07.93-.1.8-.09,2-.18,3.41-.26a89.28,89.28,0,0,1,11.37.16l-.18.16c0-.17,0-.35,0-.54.11-4.57.23-8.72.34-11.71.06-1.46.1-2.66.14-3.55,0-.39,0-.71,0-1A1.23,1.23,0,0,1,59.53,253Z"/><path class="cls-6" d="M50.56,249.48a7,7,0,0,1,.21,1c.13.69.29,1.61.5,2.71.43,2.28,1.12,5.44,2.08,8.89l.1.36-.34-.16-.41-.2a29.12,29.12,0,0,0-9-2.63c-1.2-.14-2.17-.2-2.85-.22a5.74,5.74,0,0,1-1-.06,1,1,0,0,1,.27,0c.17,0,.44,0,.78,0a23,23,0,0,1,2.87.12,26.94,26.94,0,0,1,9.1,2.56l.41.19-.24.2a88.13,88.13,0,0,1-2-8.94c-.19-1.15-.32-2.09-.39-2.73A4.5,4.5,0,0,1,50.56,249.48Z"/><path class="cls-6" d="M98.15,312.24c0,.05-1-.05-2.54-.11a42.32,42.32,0,0,0-6.13.2l-1.42.17-.16,0,0-.15c-.37-2-.67-3.84-.88-5.13a12.87,12.87,0,0,1-.26-2.08,14.56,14.56,0,0,1,.48,2c.26,1.28.61,3.07,1,5.11l-.19-.14c.45-.07.93-.13,1.42-.18a34.45,34.45,0,0,1,6.18-.1c.79.06,1.42.14,1.86.2A2.42,2.42,0,0,1,98.15,312.24Z"/><path class="cls-6" d="M101.34,305.91c0,.06-1-.16-2.47-.35a26.42,26.42,0,0,0-6-.06l-1.06.13-.17,0,0-.17c-.21-2.09-.39-4-.49-5.29A13.18,13.18,0,0,1,91,298a16.19,16.19,0,0,1,.33,2.13c.17,1.33.38,3.18.61,5.28l-.2-.15,1.07-.14a23.26,23.26,0,0,1,6.05.16,17.7,17.7,0,0,1,1.8.38A2.59,2.59,0,0,1,101.34,305.91Z"/><path class="cls-6" d="M103.62,246s-.11.08-.33.18l-1,.44-3.64,1.55-12.08,5-.65.27-.15.06-.07-.15c-2-4.5-3.78-8.55-5.1-11.52l-1.5-3.49-.39-.95a1.37,1.37,0,0,1-.12-.34,1.73,1.73,0,0,1,.18.31c.12.25.26.56.45.93.39.85.93,2,1.6,3.44L86,253.19l-.22-.09.65-.27,12.12-4.9,3.68-1.46,1-.37A1.65,1.65,0,0,1,103.62,246Z"/><path class="cls-6" d="M106.57,231.43a1.76,1.76,0,0,1-.29.21l-.89.57-3.29,2.06-11,6.69-.17.11-.07-.2c-.07-.16-.13-.35-.2-.53l-4.6-12.41-1.36-3.78-.35-1c-.08-.24-.12-.36-.1-.37a2.76,2.76,0,0,1,.16.35c.11.26.25.6.41,1,.37.92.86,2.19,1.46,3.74,1.22,3.2,2.87,7.56,4.7,12.38l.2.53-.25-.09,11-6.61,3.35-2,.91-.51A1.33,1.33,0,0,1,106.57,231.43Z"/><path class="cls-6" d="M105.61,223.66a5,5,0,0,1-.73.42c-.47.27-1.16.65-2,1.17A35.07,35.07,0,0,0,96.78,230l-.42.41.14-.58c.15-.6.29-1.23.39-1.89a22.19,22.19,0,0,0-.47-9,26.11,26.11,0,0,0-.87-2.61,8.66,8.66,0,0,1-.36-.95,4.68,4.68,0,0,1,.48.89,21.43,21.43,0,0,1,1,2.6,21.21,21.21,0,0,1,.58,9.11c-.11.66-.25,1.31-.4,1.92l-.28-.16a31.84,31.84,0,0,1,6.23-4.73,21.93,21.93,0,0,1,2-1.08A3.73,3.73,0,0,1,105.61,223.66Z"/><path class="cls-6" d="M67.15,299.23a5.08,5.08,0,0,1-.16.87c-.12.56-.29,1.37-.47,2.37a58,58,0,0,0-.9,8v.16h-.15l-.76,0c-3.34.2-6.37.37-8.56.47l-2.6.1a4.12,4.12,0,0,1-.95,0,6.15,6.15,0,0,1,.95-.12l2.59-.21c2.18-.16,5.21-.37,8.55-.57l.76,0-.16.16a49.44,49.44,0,0,1,1-8c.22-1,.42-1.81.58-2.36A3.39,3.39,0,0,1,67.15,299.23Z"/><path class="cls-6" d="M60.52,289.74a5.14,5.14,0,0,1-.05.87c-.07.63-.17,1.43-.28,2.4-.24,2-.6,4.84-1,8l0,.14H59l-1.08.07c-3.43.23-6.52.58-8.75.87l-2.64.36a6.79,6.79,0,0,1-1,.1,4,4,0,0,1,.95-.23c.62-.13,1.52-.29,2.63-.46,2.23-.36,5.32-.75,8.75-1l1.09-.07-.16.14c.44-3.15.84-6,1.15-8,.15-1,.27-1.76.37-2.38A5.09,5.09,0,0,1,60.52,289.74Z"/><path class="cls-6" d="M52.73,285.65c.05,0-.16.92-.4,2.43a42.71,42.71,0,0,0-.54,6v.19l-.19,0-.56-.08a53.5,53.5,0,0,0-6.37-.37l-1.93,0a3.13,3.13,0,0,1-.72,0,3.26,3.26,0,0,1,.71-.11c.46,0,1.12-.1,1.94-.13a39.71,39.71,0,0,1,6.41.28l.57.07-.19.16a34.9,34.9,0,0,1,.65-6c.15-.76.3-1.36.41-1.77S52.7,285.64,52.73,285.65Z"/><path class="cls-6" d="M97.13,295.14a27.83,27.83,0,0,1-1.5,3.42A30,30,0,0,1,94,301.93a15.42,15.42,0,0,1,1.31-3.51A15.94,15.94,0,0,1,97.13,295.14Z"/><path class="cls-6" d="M101.37,299.63a36,36,0,0,0-3.83.78,35.78,35.78,0,0,0-3.6,1.52,10.69,10.69,0,0,1,7.43-2.3Z"/></g><g id="Character_1" data-name="Character 1"><circle class="cls-1" cx="288.22" cy="209.28" r="86.78"/><circle class="cls-8" cx="283.55" cy="209.28" r="86.78"/><circle class="cls-9" cx="283.55" cy="209.28" r="66.39"/><circle class="cls-9" cx="283.55" cy="209.28" r="46.21"/><circle class="cls-3" cx="283.55" cy="209.28" r="4.67"/><path class="cls-5" d="M308.45,205.08l-1.82-1.15,1.15-1.81a1,1,0,0,0-1.06-1.51l-3.34.75-1.8,2.67a68.28,68.28,0,0,1-14.32,3.06h-.19v0a1.08,1.08,0,0,0-.77,1.07c-1.41.28-3.44.72-3.39,1s2.13-.14,3.53-.44a1.08,1.08,0,0,0,1.09.53v0l.07,0h0l.05,0a59.31,59.31,0,0,1,14.42-3.17l2.71,1.59,3.33-.75A1,1,0,0,0,308.45,205.08Z"/><path class="cls-5" d="M309.31,225l-2.13-.25.25-2.13a1,1,0,0,0-1.62-.9l-2.67,2.12-.47,3.19a69.28,69.28,0,0,1-11.58,9l-.09,0v0l-.06,0v0a1.08,1.08,0,0,0-.23,1.3c-1.15.85-2.79,2.13-2.63,2.34s1.85-1.05,3-1.93a1.11,1.11,0,0,0,1.21,0h0l0,0h0l0,0a59.37,59.37,0,0,1,11.61-9.1l3.14.26,2.68-2.12A1,1,0,0,0,309.31,225Z"/></g><g id="Desk"><path class="cls-6" d="M715,371.9c0,.14-152.23.26-340,.26S35,372,35,371.9s152.19-.26,340-.26S715,371.76,715,371.9Z"/></g></svg>