<svg width="78" height="51" viewBox="0 0 78 51" fill="none" xmlns="http://www.w3.org/2000/svg">
<path d="M5.13 21.39V31.56C5.13 32.56 5.32 33.25 5.7 33.63C6.08 34.01 6.75 34.2 7.71 34.2H9.63V36H7.38C5.9 36 4.8 35.66 4.08 34.98C3.36 34.28 3 33.14 3 31.56V21.39H0.72V19.62H3V15.51H5.13V19.62H9.63V21.39H5.13ZM25.4834 19.62V36H23.3834V33.12C22.9034 34.14 22.1634 34.92 21.1634 35.46C20.1634 36 19.0434 36.27 17.8034 36.27C15.8434 36.27 14.2434 35.67 13.0034 34.47C11.7634 33.25 11.1434 31.49 11.1434 29.19V19.62H13.2134V28.95C13.2134 30.73 13.6534 32.09 14.5334 33.03C15.4334 33.97 16.6534 34.44 18.1934 34.44C19.7734 34.44 21.0334 33.94 21.9734 32.94C22.9134 31.94 23.3834 30.47 23.3834 28.53V19.62H25.4834ZM30.5777 22.53C31.0377 21.51 31.7377 20.72 32.6777 20.16C33.6377 19.6 34.8077 19.32 36.1877 19.32V21.51H35.6177C34.0977 21.51 32.8777 21.92 31.9577 22.74C31.0377 23.56 30.5777 24.93 30.5777 26.85V36H28.4777V19.62H30.5777V22.53ZM38.5969 16.53C38.1769 16.53 37.8169 16.38 37.5169 16.08C37.2169 15.78 37.0669 15.41 37.0669 14.97C37.0669 14.53 37.2169 14.17 37.5169 13.89C37.8169 13.59 38.1769 13.44 38.5969 13.44C39.0169 13.44 39.3769 13.59 39.6769 13.89C39.9769 14.17 40.1269 14.53 40.1269 14.97C40.1269 15.41 39.9769 15.78 39.6769 16.08C39.3769 16.38 39.0169 16.53 38.5969 16.53ZM39.6469 19.62V36H37.5469V19.62H39.6469ZM50.2823 19.32C52.2423 19.32 53.8423 19.93 55.0823 21.15C56.3223 22.35 56.9423 24.1 56.9423 26.4V36H54.8723V26.64C54.8723 24.86 54.4223 23.5 53.5223 22.56C52.6423 21.62 51.4323 21.15 49.8923 21.15C48.3123 21.15 47.0523 21.65 46.1123 22.65C45.1723 23.65 44.7023 25.12 44.7023 27.06V36H42.6023V19.62H44.7023V22.41C45.2223 21.41 45.9723 20.65 46.9523 20.13C47.9323 19.59 49.0423 19.32 50.2823 19.32ZM66.6567 19.38C68.1967 19.38 69.5367 19.74 70.6767 20.46C71.8167 21.18 72.6367 22.09 73.1367 23.19V19.62H75.2367V36.42C75.2367 37.92 74.9067 39.25 74.2467 40.41C73.6067 41.57 72.7067 42.46 71.5467 43.08C70.3867 43.72 69.0667 44.04 67.5867 44.04C65.4867 44.04 63.7367 43.54 62.3367 42.54C60.9567 41.54 60.0967 40.18 59.7567 38.46H61.8267C62.1867 39.6 62.8667 40.51 63.8667 41.19C64.8867 41.87 66.1267 42.21 67.5867 42.21C68.6467 42.21 69.5967 41.98 70.4367 41.52C71.2767 41.08 71.9367 40.42 72.4167 39.54C72.8967 38.66 73.1367 37.62 73.1367 36.42V32.37C72.6167 33.49 71.7867 34.42 70.6467 35.16C69.5267 35.88 68.1967 36.24 66.6567 36.24C65.1567 36.24 63.8067 35.89 62.6067 35.19C61.4267 34.49 60.4967 33.5 59.8167 32.22C59.1567 30.94 58.8267 29.46 58.8267 27.78C58.8267 26.1 59.1567 24.63 59.8167 23.37C60.4967 22.09 61.4267 21.11 62.6067 20.43C63.8067 19.73 65.1567 19.38 66.6567 19.38ZM73.1367 27.81C73.1367 26.49 72.8667 25.33 72.3267 24.33C71.7867 23.33 71.0467 22.56 70.1067 22.02C69.1867 21.48 68.1667 21.21 67.0467 21.21C65.8867 21.21 64.8467 21.47 63.9267 21.99C63.0067 22.51 62.2767 23.27 61.7367 24.27C61.2167 25.25 60.9567 26.42 60.9567 27.78C60.9567 29.12 61.2167 30.3 61.7367 31.32C62.2767 32.32 63.0067 33.09 63.9267 33.63C64.8467 34.15 65.8867 34.41 67.0467 34.41C68.1667 34.41 69.1867 34.14 70.1067 33.6C71.0467 33.06 71.7867 32.29 72.3267 31.29C72.8667 30.29 73.1367 29.13 73.1367 27.81Z" fill="black"/>
<rect x="3" y="40" width="54" height="1" fill="black"/>
<rect x="3" y="43" width="54" height="1" fill="black"/>
</svg>
