<svg width="1442" height="1111" viewBox="0 0 1442 1111" fill="none" xmlns="http://www.w3.org/2000/svg">
<path fill-rule="evenodd" clip-rule="evenodd" d="M287.651 958C287.651 955.239 289.889 953 292.651 953H364.03C366.791 953 369.03 955.239 369.03 958V1003.17C369.03 1005.93 371.268 1008.17 374.03 1008.17L386.867 1008.17C391.597 1008.17 393.683 1014.13 389.986 1017.08L331.558 1063.71C329.733 1065.17 327.144 1065.17 325.32 1063.71L266.891 1017.08C263.195 1014.13 265.281 1008.17 270.01 1008.17L282.651 1008.17C285.412 1008.17 287.651 1005.93 287.651 1003.17V958Z" fill="#1C92FF"/>
<path fill-rule="evenodd" clip-rule="evenodd" d="M218.651 942C218.651 939.239 220.889 937 223.651 937H295.03C297.791 937 300.03 939.239 300.03 942V987.172C300.03 989.934 302.268 992.172 305.03 992.172L317.867 992.172C322.597 992.172 324.683 998.13 320.986 1001.08L262.558 1047.71C260.733 1049.17 258.144 1049.17 256.32 1047.71L197.891 1001.08C194.195 998.13 196.281 992.172 201.01 992.172L213.651 992.172C216.412 992.172 218.651 989.934 218.651 987.172V942Z" fill="#1C92FF"/>
<path fill-rule="evenodd" clip-rule="evenodd" d="M162.651 964C162.651 961.239 164.889 959 167.651 959H239.03C241.791 959 244.03 961.239 244.03 964V1009.17C244.03 1011.93 246.268 1014.17 249.03 1014.17L261.867 1014.17C266.597 1014.17 268.683 1020.13 264.986 1023.08L206.558 1069.71C204.733 1071.17 202.144 1071.17 200.32 1069.71L141.891 1023.08C138.195 1020.13 140.281 1014.17 145.01 1014.17L157.651 1014.17C160.412 1014.17 162.651 1011.93 162.651 1009.17V964Z" fill="#1C92FF"/>
<path fill-rule="evenodd" clip-rule="evenodd" d="M365.651 934C365.651 931.239 367.889 929 370.651 929H442.03C444.791 929 447.03 931.239 447.03 934V979.172C447.03 981.934 449.268 984.172 452.03 984.172L464.867 984.172C469.597 984.172 471.683 990.13 467.986 993.08L409.558 1039.71C407.733 1041.17 405.144 1041.17 403.32 1039.71L344.891 993.08C341.195 990.13 343.281 984.172 348.01 984.172L360.651 984.172C363.412 984.172 365.651 981.934 365.651 979.172V934Z" fill="#1C92FF"/>
<path fill-rule="evenodd" clip-rule="evenodd" d="M404.651 934C404.651 931.239 406.889 929 409.651 929H481.03C483.791 929 486.03 931.239 486.03 934V979.172C486.03 981.934 488.268 984.172 491.03 984.172L503.867 984.172C508.597 984.172 510.683 990.13 506.986 993.08L448.558 1039.71C446.733 1041.17 444.144 1041.17 442.32 1039.71L383.891 993.08C380.195 990.13 382.281 984.172 387.01 984.172L399.651 984.172C402.412 984.172 404.651 981.934 404.651 979.172V934Z" fill="#1C92FF"/>
<path fill-rule="evenodd" clip-rule="evenodd" d="M520.651 1004C520.651 1001.24 522.889 999 525.651 999H597.03C599.791 999 602.03 1001.24 602.03 1004V1049.17C602.03 1051.93 604.268 1054.17 607.03 1054.17L619.867 1054.17C624.597 1054.17 626.683 1060.13 622.986 1063.08L564.558 1109.71C562.733 1111.17 560.144 1111.17 558.32 1109.71L499.891 1063.08C496.195 1060.13 498.281 1054.17 503.01 1054.17L515.651 1054.17C518.412 1054.17 520.651 1051.93 520.651 1049.17V1004Z" fill="#1C92FF"/>
<path fill-rule="evenodd" clip-rule="evenodd" d="M661.651 951C661.651 948.239 663.889 946 666.651 946H738.03C740.791 946 743.03 948.239 743.03 951V996.172C743.03 998.934 745.268 1001.17 748.03 1001.17L760.867 1001.17C765.597 1001.17 767.683 1007.13 763.986 1010.08L705.558 1056.71C703.733 1058.17 701.144 1058.17 699.32 1056.71L640.891 1010.08C637.195 1007.13 639.281 1001.17 644.01 1001.17L656.651 1001.17C659.412 1001.17 661.651 998.934 661.651 996.172V951Z" fill="#1C92FF"/>
<path fill-rule="evenodd" clip-rule="evenodd" d="M709.651 940C709.651 937.239 711.889 935 714.651 935H786.03C788.791 935 791.03 937.239 791.03 940V985.172C791.03 987.934 793.268 990.172 796.03 990.172L808.867 990.172C813.597 990.172 815.683 996.13 811.986 999.08L753.558 1045.71C751.733 1047.17 749.144 1047.17 747.32 1045.71L688.891 999.08C685.195 996.13 687.281 990.172 692.01 990.172L704.651 990.172C707.412 990.172 709.651 987.934 709.651 985.172V940Z" fill="#1C92FF"/>
<path fill-rule="evenodd" clip-rule="evenodd" d="M785.651 971C785.651 968.239 787.889 966 790.651 966H862.03C864.791 966 867.03 968.239 867.03 971V1016.17C867.03 1018.93 869.268 1021.17 872.03 1021.17L884.867 1021.17C889.597 1021.17 891.683 1027.13 887.986 1030.08L829.558 1076.71C827.733 1078.17 825.144 1078.17 823.32 1076.71L764.891 1030.08C761.195 1027.13 763.281 1021.17 768.01 1021.17L780.651 1021.17C783.412 1021.17 785.651 1018.93 785.651 1016.17V971Z" fill="#1C92FF"/>
<path fill-rule="evenodd" clip-rule="evenodd" d="M850.651 940C850.651 937.239 852.889 935 855.651 935H927.03C929.791 935 932.03 937.239 932.03 940V985.172C932.03 987.934 934.268 990.172 937.03 990.172L949.867 990.172C954.597 990.172 956.683 996.13 952.986 999.08L894.558 1045.71C892.733 1047.17 890.144 1047.17 888.32 1045.71L829.891 999.08C826.195 996.13 828.281 990.172 833.01 990.172L845.651 990.172C848.412 990.172 850.651 987.934 850.651 985.172V940Z" fill="#1C92FF"/>
<path d="M0 0C0 0 270.5 167 721 167C1171.5 167 1442 0 1442 0V846H0V0Z" fill="#8BC7FF"/>
<path d="M0 272C0 272 270.5 439 721 439C1171.5 439 1442 272 1442 272V937.5H0L0 272Z" fill="#5BB0FF"/>
<path d="M0 569C0 569 270.5 736 721 736C1171.5 736 1442 569 1442 569V1008H0L0 569Z" fill="#1C92FF"/>
<ellipse cx="721" cy="826.5" rx="111" ry="8.5" fill="#1F82DE"/>
</svg>
