<svg width="1442" height="1111" viewBox="0 0 1442 1111" fill="none" xmlns="http://www.w3.org/2000/svg">
<path fill-rule="evenodd" clip-rule="evenodd" d="M1 6.03266C234.801 147.212 869.434 338.831 1438 0L1439.56 129.5V274V357L1442 1008H0L1 350V347.467V6.03266Z" fill="#8BC7FF"/>
<path fill-rule="evenodd" clip-rule="evenodd" d="M1 340.022C234.801 434.141 869.434 561.887 1438 336C1438 347.506 1438.52 364.764 1439.15 385.518C1440.69 436.305 1442.86 508.027 1439.56 567.645H1442V1008H0V567.645H1V340.022Z" fill="#5BB0FF"/>
<path fill-rule="evenodd" clip-rule="evenodd" d="M1 705.819C234.801 748.397 869.434 806.187 1438 704C1438 709.205 1438.52 717.012 1439.15 726.401C1440.69 749.376 1442.86 781.822 1439.56 808.792H1442V1008H0V808.792H1V705.819Z" fill="#1C92FF"/>
<ellipse cx="720" cy="826.5" rx="111" ry="8.5" fill="#1F82DE"/>
<path fill-rule="evenodd" clip-rule="evenodd" d="M251.651 958C251.651 955.238 253.889 953 256.651 953H328.03C330.791 953 333.03 955.238 333.03 958V1003.17C333.03 1005.93 335.268 1008.17 338.03 1008.17L350.867 1008.17C355.597 1008.17 357.683 1014.13 353.986 1017.08L295.558 1063.71C293.733 1065.17 291.144 1065.17 289.32 1063.71L230.891 1017.08C227.195 1014.13 229.281 1008.17 234.01 1008.17L246.651 1008.17C249.412 1008.17 251.651 1005.93 251.651 1003.17V958Z" fill="#1C92FF"/>
<path fill-rule="evenodd" clip-rule="evenodd" d="M182.651 942C182.651 939.238 184.889 937 187.651 937H259.03C261.791 937 264.03 939.238 264.03 942V987.172C264.03 989.933 266.268 992.172 269.03 992.172L281.867 992.172C286.597 992.172 288.683 998.13 284.986 1001.08L226.558 1047.71C224.733 1049.17 222.144 1049.17 220.32 1047.71L161.891 1001.08C158.195 998.13 160.281 992.172 165.01 992.172L177.651 992.172C180.412 992.172 182.651 989.933 182.651 987.172V942Z" fill="#1C92FF"/>
<path fill-rule="evenodd" clip-rule="evenodd" d="M126.651 964C126.651 961.238 128.889 959 131.651 959H203.03C205.791 959 208.03 961.238 208.03 964V1009.17C208.03 1011.93 210.268 1014.17 213.03 1014.17L225.867 1014.17C230.597 1014.17 232.683 1020.13 228.986 1023.08L170.558 1069.71C168.733 1071.17 166.144 1071.17 164.32 1069.71L105.891 1023.08C102.195 1020.13 104.281 1014.17 109.01 1014.17L121.651 1014.17C124.412 1014.17 126.651 1011.93 126.651 1009.17V964Z" fill="#1C92FF"/>
<path fill-rule="evenodd" clip-rule="evenodd" d="M329.651 934C329.651 931.238 331.889 929 334.651 929H406.03C408.791 929 411.03 931.238 411.03 934V979.172C411.03 981.933 413.268 984.172 416.03 984.172L428.867 984.172C433.597 984.172 435.683 990.13 431.986 993.08L373.558 1039.71C371.733 1041.17 369.144 1041.17 367.32 1039.71L308.891 993.08C305.195 990.13 307.281 984.172 312.01 984.172L324.651 984.172C327.412 984.172 329.651 981.933 329.651 979.172V934Z" fill="#1C92FF"/>
<path fill-rule="evenodd" clip-rule="evenodd" d="M368.651 934C368.651 931.238 370.889 929 373.651 929H445.03C447.791 929 450.03 931.238 450.03 934V979.172C450.03 981.933 452.268 984.172 455.03 984.172L467.867 984.172C472.597 984.172 474.683 990.13 470.986 993.08L412.558 1039.71C410.733 1041.17 408.144 1041.17 406.32 1039.71L347.891 993.08C344.195 990.13 346.281 984.172 351.01 984.172L363.651 984.172C366.412 984.172 368.651 981.933 368.651 979.172V934Z" fill="#1C92FF"/>
<path fill-rule="evenodd" clip-rule="evenodd" d="M484.651 1004C484.651 1001.24 486.889 999 489.651 999H561.03C563.791 999 566.03 1001.24 566.03 1004V1049.17C566.03 1051.93 568.268 1054.17 571.03 1054.17L583.867 1054.17C588.597 1054.17 590.683 1060.13 586.986 1063.08L528.558 1109.71C526.733 1111.17 524.144 1111.17 522.32 1109.71L463.891 1063.08C460.195 1060.13 462.281 1054.17 467.01 1054.17L479.651 1054.17C482.412 1054.17 484.651 1051.93 484.651 1049.17V1004Z" fill="#1C92FF"/>
<path fill-rule="evenodd" clip-rule="evenodd" d="M625.651 951C625.651 948.238 627.889 946 630.651 946H702.03C704.791 946 707.03 948.238 707.03 951V996.172C707.03 998.933 709.268 1001.17 712.03 1001.17L724.867 1001.17C729.597 1001.17 731.683 1007.13 727.986 1010.08L669.558 1056.71C667.733 1058.17 665.144 1058.17 663.32 1056.71L604.891 1010.08C601.195 1007.13 603.281 1001.17 608.01 1001.17L620.651 1001.17C623.412 1001.17 625.651 998.933 625.651 996.172V951Z" fill="#1C92FF"/>
<path fill-rule="evenodd" clip-rule="evenodd" d="M673.651 940C673.651 937.238 675.889 935 678.651 935H750.03C752.791 935 755.03 937.238 755.03 940V985.172C755.03 987.933 757.268 990.172 760.03 990.172L772.867 990.172C777.597 990.172 779.683 996.13 775.986 999.08L717.558 1045.71C715.733 1047.17 713.144 1047.17 711.32 1045.71L652.891 999.08C649.195 996.13 651.281 990.172 656.01 990.172L668.651 990.172C671.412 990.172 673.651 987.933 673.651 985.172V940Z" fill="#1C92FF"/>
<path fill-rule="evenodd" clip-rule="evenodd" d="M749.651 971C749.651 968.238 751.889 966 754.651 966H826.03C828.791 966 831.03 968.238 831.03 971V1016.17C831.03 1018.93 833.268 1021.17 836.03 1021.17L848.867 1021.17C853.597 1021.17 855.683 1027.13 851.986 1030.08L793.558 1076.71C791.733 1078.17 789.144 1078.17 787.32 1076.71L728.891 1030.08C725.195 1027.13 727.281 1021.17 732.01 1021.17L744.651 1021.17C747.412 1021.17 749.651 1018.93 749.651 1016.17V971Z" fill="#1C92FF"/>
<path fill-rule="evenodd" clip-rule="evenodd" d="M814.651 940C814.651 937.238 816.889 935 819.651 935H891.03C893.791 935 896.03 937.238 896.03 940V985.172C896.03 987.933 898.268 990.172 901.03 990.172L913.867 990.172C918.597 990.172 920.683 996.13 916.986 999.08L858.558 1045.71C856.733 1047.17 854.144 1047.17 852.32 1045.71L793.891 999.08C790.195 996.13 792.281 990.172 797.01 990.172L809.651 990.172C812.412 990.172 814.651 987.933 814.651 985.172V940Z" fill="#1C92FF"/>
<path d="M552.511 480.647V516.267L469.932 711.01L422.317 695.031L497.902 520.262H407V480.647H552.511Z" fill="#1C92FF"/>
<path d="M652.414 475.987C679.94 475.987 700.917 486.084 715.346 506.28C729.997 526.476 737.323 555.548 737.323 593.498C737.323 631.227 729.997 660.299 715.346 680.717C700.917 701.134 679.94 711.343 652.414 711.343C624.888 711.343 603.799 701.134 589.148 680.717C574.719 660.299 567.505 631.227 567.505 593.498C567.505 555.548 574.719 526.476 589.148 506.28C603.799 486.084 624.888 475.987 652.414 475.987ZM652.414 514.935C644.866 514.935 638.873 517.377 634.433 522.259C629.993 527.141 626.664 535.242 624.444 546.56C622.446 557.879 621.447 573.525 621.447 593.498C621.447 613.472 622.446 629.229 624.444 640.77C626.664 652.088 629.993 660.188 634.433 665.071C638.873 669.953 644.866 672.395 652.414 672.395C659.961 672.395 665.955 670.064 670.395 665.404C674.834 660.521 678.053 652.421 680.051 641.102C682.271 629.562 683.381 613.694 683.381 593.498C683.381 573.303 682.271 557.546 680.051 546.227C678.053 534.687 674.834 526.587 670.395 521.926C665.955 517.266 659.961 514.935 652.414 514.935Z" fill="#1C92FF"/>
<path d="M954.077 466L986.376 486.639L832.208 719L799.909 698.36L954.077 466ZM818.556 475.987C829.655 475.987 839.644 478.428 848.524 483.31C857.625 488.193 864.729 495.184 869.834 504.283C875.162 513.382 877.826 523.923 877.826 535.908C877.826 547.892 875.162 558.434 869.834 567.533C864.729 576.632 857.625 583.623 848.524 588.505C839.644 593.387 829.655 595.829 818.556 595.829C807.457 595.829 797.356 593.387 788.255 588.505C779.376 583.401 772.272 576.41 766.945 567.533C761.839 558.434 759.286 547.892 759.286 535.908C759.286 523.923 761.839 513.493 766.945 504.616C772.272 495.516 779.376 488.526 788.255 483.643C797.356 478.539 807.457 475.987 818.556 475.987ZM818.556 507.612C804.127 507.612 796.912 517.044 796.912 535.908C796.912 544.119 798.466 550.888 801.574 556.214C804.904 561.541 810.564 564.204 818.556 564.204C832.763 564.204 839.866 554.772 839.866 535.908C839.866 517.044 832.763 507.612 818.556 507.612ZM966.73 591.834C977.829 591.834 987.819 594.275 996.698 599.158C1005.8 604.04 1012.9 611.031 1018.01 620.13C1023.34 629.007 1026 639.438 1026 651.422C1026 663.406 1023.34 673.948 1018.01 683.047C1012.9 692.146 1005.8 699.137 996.698 704.019C987.819 708.902 977.829 711.343 966.73 711.343C955.631 711.343 945.531 708.902 936.429 704.019C927.328 699.137 920.114 692.146 914.786 683.047C909.68 673.948 907.128 663.406 907.128 651.422C907.128 639.438 909.68 629.007 914.786 620.13C920.114 611.031 927.328 604.04 936.429 599.158C945.531 594.275 955.631 591.834 966.73 591.834ZM966.73 623.459C952.301 623.459 945.087 632.78 945.087 651.422C945.087 659.634 946.641 666.513 949.748 672.062C953.078 677.388 958.739 680.051 966.73 680.051C980.937 680.051 988.041 670.508 988.041 651.422C988.041 632.78 980.937 623.459 966.73 623.459Z" fill="#1C92FF"/>
<path fill-rule="evenodd" clip-rule="evenodd" d="M549.255 467.999V504.723L466.265 700.88L417.034 684.321L492.517 509.393H402V467.999H549.255ZM493.784 508.559L418.158 683.819L465.799 699.843L548.422 504.553V468.833H402.833V508.559H493.784ZM584.403 669.951L584.399 669.946C569.824 649.275 562.592 619.925 562.592 582.001C562.592 543.857 569.824 514.504 584.402 494.053L584.405 494.048C599.239 473.555 620.603 463.325 648.379 463.325C676.153 463.325 697.409 473.554 712.021 494.049C726.823 514.501 734.167 543.856 734.167 582.001C734.167 619.926 726.823 649.278 712.023 669.949C697.413 690.668 676.157 701.011 648.379 701.011C620.6 701.011 599.235 690.667 584.403 669.951ZM711.346 669.464C726.005 648.99 733.334 619.835 733.334 582.001C733.334 543.945 726.005 514.79 711.346 494.538C696.909 474.286 675.92 464.16 648.379 464.16C620.838 464.16 599.738 474.286 585.08 494.538C570.643 514.79 563.424 543.945 563.424 582.001C563.424 619.835 570.643 648.99 585.08 669.464C599.738 689.939 620.838 700.177 648.379 700.177C675.92 700.177 696.909 689.939 711.346 669.464ZM675.212 629.587L675.213 629.581C677.42 618.084 678.53 602.232 678.53 582.001C678.53 561.769 677.42 546.03 675.214 534.758L675.212 534.749L675.21 534.74C673.22 523.215 670.035 515.294 665.766 510.804C661.509 506.324 655.746 504.052 648.379 504.052C641.025 504.052 635.266 506.427 631.005 511.123C626.717 515.85 623.424 523.79 621.213 535.085C619.227 546.364 618.229 561.995 618.229 582.001C618.229 602.006 619.227 617.75 621.213 629.253C623.424 640.547 626.717 648.487 631.005 653.213C635.266 657.909 641.025 660.284 648.379 660.284C655.742 660.284 661.503 658.015 665.76 653.54C670.04 648.817 673.223 640.884 675.211 629.594L675.212 629.587ZM666.37 654.108C661.928 658.782 655.931 661.119 648.379 661.119C640.828 661.119 634.831 658.671 630.389 653.774C625.947 648.878 622.615 640.755 620.394 629.405C618.395 617.832 617.396 602.031 617.396 582.001C617.396 561.972 618.395 546.282 620.394 534.931C622.615 523.581 625.947 515.458 630.389 510.562C634.831 505.666 640.828 503.218 648.379 503.218C655.931 503.218 661.928 505.554 666.37 510.228C670.812 514.902 674.032 523.025 676.031 534.598C678.252 545.948 679.363 561.749 679.363 582.001C679.363 602.254 678.252 618.166 676.031 629.739C674.032 641.089 670.812 649.212 666.37 654.108ZM949.964 453L983.684 474.596L828.512 709L794.792 687.403L949.964 453ZM783.889 577.723L783.879 577.717C774.87 572.527 767.66 565.415 762.258 556.392L762.251 556.382L762.245 556.371C757.057 547.104 754.476 536.388 754.476 524.249C754.476 512.11 757.057 501.502 762.25 492.453L762.253 492.447C767.655 483.2 774.869 476.08 783.889 471.109C793.127 465.916 803.373 463.325 814.611 463.325C825.841 463.325 835.975 465.802 844.992 470.771C854.236 475.741 861.456 482.863 866.64 492.121C872.052 501.389 874.746 512.107 874.746 524.249C874.746 536.391 872.052 547.109 866.64 556.377C861.456 565.634 854.236 572.756 844.992 577.727C835.975 582.696 825.841 585.173 814.611 585.173C803.379 585.173 793.136 582.695 783.9 577.729L783.889 577.723ZM844.595 576.994C853.701 572.098 860.809 565.087 865.917 555.963C871.247 546.838 873.913 536.267 873.913 524.249C873.913 512.231 871.247 501.66 865.917 492.535C860.809 483.411 853.701 476.4 844.595 471.504C835.711 466.608 825.716 464.16 814.611 464.16C803.506 464.16 793.4 466.719 784.294 471.838C775.41 476.734 768.302 483.744 762.972 492.869C757.863 501.771 755.309 512.231 755.309 524.249C755.309 536.267 757.863 546.838 762.972 555.963C768.302 564.865 775.41 571.875 784.294 576.994C793.4 581.89 803.506 584.338 814.611 584.338C825.716 584.338 835.711 581.89 844.595 576.994ZM910.17 672.216L910.167 672.209C904.979 662.943 902.398 652.227 902.398 640.087C902.398 627.949 904.978 617.34 910.171 608.292L910.174 608.286C915.581 599.032 922.91 591.911 932.154 586.941C941.391 581.975 951.633 579.498 962.865 579.498C974.096 579.498 984.229 581.974 993.247 586.943C1002.49 591.913 1009.71 599.033 1014.89 608.289C1020.31 617.337 1023 627.947 1023 640.087C1023 652.23 1020.31 662.949 1014.89 672.217C1009.71 681.474 1002.49 688.595 993.247 693.566C984.229 698.535 974.096 701.011 962.865 701.011C951.633 701.011 941.391 698.534 932.154 693.568C922.91 688.597 915.581 681.477 910.174 672.223L910.17 672.216ZM992.849 692.832C1001.96 687.936 1009.06 680.926 1014.17 671.801C1019.5 662.676 1022.17 652.105 1022.17 640.087C1022.17 628.07 1019.5 617.61 1014.17 608.708C1009.06 599.583 1001.96 592.572 992.849 587.676C983.965 582.78 973.971 580.332 962.865 580.332C951.76 580.332 941.654 582.78 932.548 587.676C923.442 592.572 916.224 599.583 910.893 608.708C905.785 617.61 903.23 628.07 903.23 640.087C903.23 652.105 905.785 662.676 910.893 671.801C916.224 680.926 923.442 687.936 932.548 692.832C941.654 697.729 951.76 700.177 962.865 700.177C973.971 700.177 983.965 697.729 992.849 692.832ZM950.205 454.146L795.954 687.157L795.955 687.158L828.27 707.855L982.522 474.842L982.521 474.842L950.205 454.145L950.205 454.146ZM799.031 503.474C795.582 507.994 793.789 514.873 793.789 524.249C793.789 532.377 795.323 539.005 798.333 544.181C801.472 549.204 806.819 551.79 814.611 551.79C821.516 551.79 826.574 549.505 829.937 545.028C833.334 540.508 835.1 533.627 835.1 524.249C835.1 514.871 833.334 507.99 829.937 503.469C826.574 498.993 821.516 496.708 814.611 496.708C807.59 496.708 802.449 498.996 799.031 503.474ZM797.62 544.612C794.511 539.271 792.956 532.483 792.956 524.249C792.956 505.332 800.174 495.873 814.611 495.873C828.826 495.873 835.933 505.332 835.933 524.249C835.933 543.166 828.826 552.624 814.611 552.624C806.615 552.624 800.952 549.954 797.62 544.612ZM947.283 619.567C943.835 624.031 942.043 630.825 942.043 640.087C942.043 648.211 943.575 654.955 946.592 660.36C949.73 665.378 955.077 667.962 962.865 667.962C969.767 667.962 974.824 665.652 978.189 661.121C981.588 656.544 983.354 649.578 983.354 640.087C983.354 630.823 981.589 624.027 978.194 619.562C974.832 615.14 969.774 612.88 962.865 612.88C955.841 612.88 950.699 615.144 947.283 619.567ZM945.874 660.785C942.765 655.221 941.21 648.322 941.21 640.087C941.21 621.393 948.429 612.046 962.865 612.046C977.08 612.046 984.187 621.393 984.187 640.087C984.187 659.227 977.08 668.797 962.865 668.797C954.87 668.797 949.206 666.126 945.874 660.785Z" fill="white"/>
</svg>
